<svg width="38" height="27" viewBox="0 0 38 27" fill="none" xmlns="http://www.w3.org/2000/svg">
<path d="M32.5895 13.789C33.9933 12.3314 34.766 10.3619 34.766 8.2433C34.766 3.69797 31.0326 1.52588e-05 26.4433 1.52588e-05C23.2352 1.52588e-05 20.3658 1.82539 18.987 4.59422C17.5971 1.85531 14.7384 0.0505801 11.5569 0.0505801C6.96759 0.0505801 3.23413 3.74853 3.23413 8.29386C3.23413 10.4049 3.99458 12.3609 5.37543 13.8012C8.54705 17.1089 18.4796 26.7002 18.5799 26.7967C18.6979 26.9105 18.849 26.9678 19.0001 26.9678C19.152 26.9678 19.3035 26.91 19.4219 26.7954C19.521 26.6985 29.4134 17.0849 32.5895 13.789ZM18.9989 25.4668C17.0648 23.5968 9.03109 15.8136 6.25014 12.9134C5.09738 11.7112 4.46265 10.0708 4.46265 8.29386C4.46265 4.44548 7.64491 1.31469 11.5569 1.31469C14.7584 1.31469 17.5734 3.44219 18.4018 6.48786C18.4759 6.76091 18.7179 6.94969 18.9931 6.94969H18.9952C19.2716 6.94884 19.5132 6.75796 19.5857 6.48365C20.399 3.41059 23.2188 1.26413 26.4433 1.26413C30.3553 1.26413 33.5375 4.39491 33.5375 8.2433C33.5375 10.0265 32.8909 11.68 31.7169 12.8986C28.9298 15.7913 20.926 23.5913 18.9989 25.4668Z" fill="white"/>
<path d="M3.29799 14.8733C1.95341 13.4347 1.21279 11.471 1.21279 9.34359C1.21279 9.00167 0.941532 8.72491 0.606397 8.72491C0.271262 8.72491 0 9.00167 0 9.34359C0 11.7902 0.859467 14.0575 2.42033 15.7275C3.1092 16.4649 4.12269 17.5171 5.43291 18.855C5.55136 18.9759 5.7066 19.0361 5.86184 19.0361C6.01708 19.0361 6.17191 18.9759 6.29036 18.8555C6.52726 18.6138 6.52726 18.2224 6.29076 17.9802C4.98741 16.6493 3.98039 15.6041 3.29799 14.8733Z" fill="white"/>
<path d="M36.519 2.63137C36.3534 2.36288 36.0291 2.29903 35.7945 2.4886C35.5599 2.67817 35.5041 3.04937 35.6697 3.31786C36.5145 4.68687 36.9608 6.30732 36.9608 8.00351C36.9608 9.35864 36.6812 10.6773 36.1524 11.8175C36.018 12.1074 36.1143 12.4679 36.368 12.6217C36.4452 12.6685 36.5287 12.6907 36.6109 12.6907C36.7969 12.6907 36.9771 12.5761 37.0703 12.3747C37.6784 11.0636 38 9.55177 38 8.00311C38 6.05985 37.4875 4.20224 36.519 2.63137Z" fill="white"/>
<path d="M33.6722 16.0509C32.0913 17.6302 29.8024 19.8754 26.8701 22.7243C26.6194 22.9673 26.6177 23.3639 26.8658 23.6098C26.9905 23.7333 27.1547 23.7951 27.319 23.7951C27.4815 23.7951 27.6437 23.7346 27.7684 23.6135C30.7049 20.7609 32.9977 18.5111 34.5832 16.9276C34.83 16.6808 34.8266 16.2846 34.5747 16.0421C34.3232 15.8008 33.9194 15.8041 33.6722 16.0509Z" fill="white"/>
<path d="M8.70864 4.92595C8.4677 4.69791 8.083 4.70426 7.84976 4.94063C6.00809 6.80855 6.00809 9.848 7.84976 11.7159C7.96881 11.8369 8.12755 11.8976 8.28669 11.8976C8.43854 11.8976 8.5908 11.842 8.70864 11.7306C8.94998 11.5022 8.95646 11.1258 8.72362 10.8894C7.33103 9.47719 7.33103 7.17936 8.72362 5.76711C8.95646 5.53075 8.94998 5.15439 8.70864 4.92595Z" fill="white"/>
</svg>
