<svg width="38" height="27" viewBox="0 0 38 27" fill="none" xmlns="http://www.w3.org/2000/svg">
<path d="M32.5895 13.7889C33.9933 12.3314 34.766 10.3619 34.766 8.24328C34.766 3.69795 31.0326 0 26.4433 0C23.2352 0 20.3658 1.82538 18.987 4.59421C17.5971 1.8553 14.7384 0.0505649 11.5569 0.0505649C6.96759 0.0505649 3.23413 3.74852 3.23413 8.29384C3.23413 10.4049 3.99458 12.3609 5.37543 13.8012C8.54705 17.1089 18.4796 26.7002 18.5799 26.7967C18.6979 26.9104 18.849 26.9677 19.0001 26.9677C19.152 26.9677 19.3035 26.91 19.4219 26.7954C19.521 26.6985 29.4134 17.0849 32.5895 13.7889ZM18.9989 25.4668C17.0648 23.5968 9.03109 15.8136 6.25014 12.9133C5.09738 11.7112 4.46265 10.0708 4.46265 8.29384C4.46265 4.44546 7.64491 1.31468 11.5569 1.31468C14.7584 1.31468 17.5734 3.44218 18.4018 6.48785C18.4759 6.7609 18.7179 6.94967 18.9931 6.94967H18.9952C19.2716 6.94883 19.5132 6.75795 19.5857 6.48364C20.399 3.41058 23.2188 1.26411 26.4433 1.26411C30.3553 1.26411 33.5375 4.3949 33.5375 8.24328C33.5375 10.0265 32.8909 11.68 31.7169 12.8986C28.9298 15.7913 20.926 23.5913 18.9989 25.4668Z" fill="#EDDBCE"/>
<path d="M3.29799 14.8732C1.95341 13.4346 1.21279 11.4709 1.21279 9.34353C1.21279 9.00161 0.941532 8.72485 0.606397 8.72485C0.271262 8.72485 0 9.00161 0 9.34353C0 11.7902 0.859467 14.0574 2.42033 15.7274C3.1092 16.4648 4.12269 17.517 5.43291 18.855C5.55136 18.9758 5.7066 19.036 5.86184 19.036C6.01708 19.036 6.17191 18.9758 6.29036 18.8554C6.52726 18.6137 6.52726 18.2223 6.29076 17.9802C4.98741 16.6492 3.98039 15.6041 3.29799 14.8732Z" fill="#EDDBCE"/>
<path d="M36.519 2.63146C36.3534 2.36298 36.0291 2.29913 35.7945 2.48869C35.5599 2.67826 35.5041 3.04946 35.6697 3.31795C36.5145 4.68696 36.9608 6.30741 36.9608 8.0036C36.9608 9.35873 36.6812 10.6774 36.1524 11.8176C36.018 12.1075 36.1143 12.468 36.368 12.6218C36.4452 12.6686 36.5287 12.6908 36.6109 12.6908C36.7969 12.6908 36.9771 12.5762 37.0703 12.3748C37.6784 11.0636 38 9.55187 38 8.0032C38 6.05994 37.4875 4.20234 36.519 2.63146Z" fill="#EDDBCE"/>
<path d="M33.6722 16.051C32.0913 17.6303 29.8024 19.8755 26.8701 22.7244C26.6194 22.9673 26.6177 23.364 26.8658 23.6099C26.9905 23.7334 27.1547 23.7952 27.319 23.7952C27.4815 23.7952 27.6437 23.7347 27.7684 23.6136C30.7049 20.761 32.9977 18.5112 34.5832 16.9277C34.83 16.6809 34.8266 16.2847 34.5747 16.0422C34.3232 15.8009 33.9194 15.8042 33.6722 16.051Z" fill="#EDDBCE"/>
<path d="M8.70864 4.92594C8.4677 4.6979 8.083 4.70424 7.84976 4.94061C6.00809 6.80854 6.00809 9.84799 7.84976 11.7159C7.96881 11.8369 8.12755 11.8976 8.28669 11.8976C8.43854 11.8976 8.5908 11.842 8.70864 11.7306C8.94998 11.5022 8.95646 11.1258 8.72362 10.8894C7.33103 9.47718 7.33103 7.17935 8.72362 5.7671C8.95646 5.53073 8.94998 5.15437 8.70864 4.92594Z" fill="#EDDBCE"/>
</svg>
