<svg width="221" height="84" viewBox="0 0 221 84" fill="none" xmlns="http://www.w3.org/2000/svg">
<path d="M8.70227 3.98C7.62227 3.98 7.08227 3.88 7.08227 3.68C7.08227 3.2 7.52227 2.7 8.40227 2.18C9.28227 1.66 10.0023 1.4 10.5623 1.4C11.6023 1.4 12.8823 1.44 14.4023 1.52C15.9223 1.56 17.7023 1.66 19.7423 1.82C21.8223 1.98 23.6223 2.1 25.1423 2.18C26.7023 2.22 27.9823 2.24 28.9823 2.24C31.6223 2.24 34.0223 2.06 36.1823 1.7C36.0223 2.22 35.5023 2.6 34.6223 2.84C31.8223 3.6 26.8423 3.98 19.6823 3.98C19.2823 3.98 18.7623 3.98 18.1223 3.98C17.4823 3.98 16.7423 3.96 15.9023 3.92C15.1023 3.88 14.3823 3.86 13.7423 3.86C13.1423 3.86 12.6223 3.86 12.1823 3.86C11.7823 3.86 11.2023 3.88 10.4423 3.92C9.68227 3.96 9.10227 3.98 8.70227 3.98ZM15.4223 36.92C9.86227 36.92 7.08227 33.76 7.08227 27.44C7.08227 25.12 7.44227 22.38 8.16227 19.22C7.92227 19.22 7.54227 19.2 7.02227 19.16C6.54227 19.12 6.18227 19.1 5.94227 19.1C5.22227 19.1 4.86227 18.94 4.86227 18.62C4.86227 18.14 5.36227 17.64 6.36227 17.12C6.80227 16.92 7.20227 16.76 7.56227 16.64C7.96227 16.48 8.30227 16.38 8.58227 16.34C8.86227 14.58 9.06227 12.84 9.18227 11.12C9.30227 9.4 9.36227 7.74 9.36227 6.14C10.2823 4.74 11.0823 4.04 11.7623 4.04C12.2023 4.04 12.4223 4.42 12.4223 5.18C12.4223 5.7 12.2623 6.92 11.9423 8.84C11.6223 10.72 11.1423 13.3 10.5023 16.58L22.5023 16.94C22.8623 16.94 23.3023 16.94 23.8223 16.94C24.3823 16.9 25.0423 16.86 25.8023 16.82C26.5623 16.78 27.2023 16.76 27.7223 16.76C28.2823 16.72 28.7423 16.7 29.1023 16.7C29.1823 16.7 29.2223 16.72 29.2223 16.76C29.1823 16.8 29.1423 16.84 29.1023 16.88C29.0623 16.92 29.0023 16.96 28.9223 17C27.7223 17.56 26.5023 17.96 25.2623 18.2C22.2623 18.8 17.2623 19.1 10.2623 19.1C10.0623 20.14 9.90227 21.14 9.78227 22.1C9.66227 23.02 9.60227 23.92 9.60227 24.8C9.60227 31.72 13.0823 35.18 20.0423 35.18C24.0823 35.18 28.2223 34.1 32.4623 31.94L34.9223 30.5C36.0423 29.86 36.7623 29.54 37.0823 29.54C37.3223 29.54 37.4423 29.68 37.4423 29.96C37.4423 31.12 36.5223 32.08 34.6823 32.84C32.0823 34 28.9423 34.96 25.2623 35.72C23.4223 36.12 21.6623 36.42 19.9823 36.62C18.3423 36.82 16.8223 36.92 15.4223 36.92ZM79.0077 35C76.2077 35 73.8677 26.84 71.9877 10.52C70.8677 13 69.7277 15.34 68.5677 17.54C67.4077 19.74 66.2477 21.78 65.0877 23.66C61.2077 30.06 58.0877 33.26 55.7277 33.26C53.0077 33.26 50.8077 29.68 49.1277 22.52C48.4877 19.8 48.0077 17.2 47.6877 14.72C47.3677 12.24 47.2077 9.9 47.2077 7.7C47.2077 4.34 47.7877 2.56 48.9477 2.36L49.2477 7.28C49.5677 12.32 50.1677 16.7 51.0477 20.42C52.6077 26.82 54.7677 30.02 57.5277 30.02C59.4477 30.02 62.1877 26.86 65.7477 20.54C68.5877 15.5 70.5677 11.3 71.6877 7.94L71.2677 4.04C71.2677 2.08 71.8877 1.1 73.1277 1.1C74.1677 1.1 74.6877 2.1 74.6877 4.1C74.6877 5.26 74.5077 6.06 74.1477 6.5V7.52C74.1477 9.36 74.2277 11.26 74.3877 13.22C74.5477 15.18 74.7877 17.2 75.1077 19.28C75.3077 20.52 75.5477 21.74 75.8277 22.94C76.1077 24.14 76.4277 25.32 76.7877 26.48C77.9877 30.28 79.2877 32.18 80.6877 32.18C80.8877 32.18 81.1477 32.1 81.4677 31.94C81.8277 31.74 82.0477 31.64 82.1277 31.64L82.3077 31.82C82.3077 32.02 81.7077 32.82 80.5077 34.22C80.1077 34.74 79.6077 35 79.0077 35ZM39.3477 36.44C38.3877 36.44 37.9077 35.1 37.9077 32.42C37.9077 27.38 39.8077 19.16 43.6077 7.76C43.7677 7.32 43.9877 6.68 44.2677 5.84C44.5877 5 44.9677 3.98 45.4077 2.78C45.8077 1.66 46.3277 1.1 46.9677 1.1C47.2877 1.1 47.4677 1.3 47.5077 1.7C46.2677 4.86 45.2077 7.6 44.3277 9.92C43.4477 12.2 42.7677 14.06 42.2877 15.5C40.4477 21.06 39.5277 25.82 39.5277 29.78C39.5277 30.38 39.6877 31.38 40.0077 32.78C40.1677 33.42 40.2877 33.96 40.3677 34.4C40.4477 34.84 40.4877 35.16 40.4877 35.36C40.4877 36.08 40.1077 36.44 39.3477 36.44ZM87.8624 3.98C86.7824 3.98 86.2424 3.88 86.2424 3.68C86.2424 3.2 86.6824 2.7 87.5624 2.18C88.4424 1.66 89.1624 1.4 89.7224 1.4C90.7624 1.4 92.0424 1.44 93.5624 1.52C95.0824 1.56 96.8624 1.66 98.9024 1.82C100.982 1.98 102.782 2.1 104.302 2.18C105.862 2.22 107.142 2.24 108.142 2.24C110.782 2.24 113.182 2.06 115.342 1.7C115.182 2.22 114.662 2.6 113.782 2.84C110.982 3.6 106.002 3.98 98.8424 3.98C98.4424 3.98 97.9224 3.98 97.2824 3.98C96.6424 3.98 95.9024 3.96 95.0624 3.92C94.2624 3.88 93.5424 3.86 92.9024 3.86C92.3024 3.86 91.7824 3.86 91.3424 3.86C90.9424 3.86 90.3624 3.88 89.6024 3.92C88.8424 3.96 88.2624 3.98 87.8624 3.98ZM94.5824 36.92C89.0224 36.92 86.2424 33.76 86.2424 27.44C86.2424 25.12 86.6024 22.38 87.3224 19.22C87.0824 19.22 86.7024 19.2 86.1824 19.16C85.7024 19.12 85.3424 19.1 85.1024 19.1C84.3824 19.1 84.0224 18.94 84.0224 18.62C84.0224 18.14 84.5224 17.64 85.5224 17.12C85.9624 16.92 86.3624 16.76 86.7224 16.64C87.1224 16.48 87.4624 16.38 87.7424 16.34C88.0224 14.58 88.2224 12.84 88.3424 11.12C88.4624 9.4 88.5224 7.74 88.5224 6.14C89.4424 4.74 90.2424 4.04 90.9224 4.04C91.3624 4.04 91.5824 4.42 91.5824 5.18C91.5824 5.7 91.4224 6.92 91.1024 8.84C90.7824 10.72 90.3024 13.3 89.6624 16.58L101.662 16.94C102.022 16.94 102.462 16.94 102.982 16.94C103.542 16.9 104.202 16.86 104.962 16.82C105.722 16.78 106.362 16.76 106.882 16.76C107.442 16.72 107.902 16.7 108.262 16.7C108.342 16.7 108.382 16.72 108.382 16.76C108.342 16.8 108.302 16.84 108.262 16.88C108.222 16.92 108.162 16.96 108.082 17C106.882 17.56 105.662 17.96 104.422 18.2C101.422 18.8 96.4224 19.1 89.4224 19.1C89.2224 20.14 89.0624 21.14 88.9424 22.1C88.8224 23.02 88.7624 23.92 88.7624 24.8C88.7624 31.72 92.2424 35.18 99.2024 35.18C103.242 35.18 107.382 34.1 111.622 31.94L114.082 30.5C115.202 29.86 115.922 29.54 116.242 29.54C116.482 29.54 116.602 29.68 116.602 29.96C116.602 31.12 115.682 32.08 113.842 32.84C111.242 34 108.102 34.96 104.422 35.72C102.582 36.12 100.822 36.42 99.1424 36.62C97.5024 36.82 95.9824 36.92 94.5824 36.92ZM137.468 37.28C134.108 37.28 130.828 33.34 127.628 25.46C127.388 24.62 126.968 23.42 126.368 21.86C126.168 21.46 125.828 21.16 125.348 20.96C124.988 20.76 124.808 20.3 124.808 19.58C124.808 17.86 125.188 17 125.948 17C126.188 17 126.388 17.08 126.548 17.24C126.708 17.68 126.908 18.22 127.148 18.86C127.388 19.5 127.668 20.26 127.988 21.14V21.02C127.988 20.82 128.128 20.7 128.408 20.66C129.408 20.5 130.328 20.34 131.168 20.18C132.008 20.02 132.748 19.84 133.388 19.64C135.428 19.04 137.348 18.18 139.148 17.06C141.748 15.5 143.048 14 143.048 12.56C143.048 10.84 141.748 9.2 139.148 7.64C136.628 6.04 133.728 5 130.448 4.52C128.288 4.16 125.188 3.98 121.148 3.98C120.508 3.98 119.888 4.02 119.288 4.1C118.728 4.14 118.208 4.2 117.728 4.28C117.848 3.28 118.288 2.64 119.048 2.36C119.248 2.28 119.548 2.22 119.948 2.18C120.388 2.14 120.928 2.1 121.568 2.06C122.008 2.02 122.488 2 123.008 2C123.568 2 124.168 2 124.808 2H125.828C131.748 2 136.708 3.14 140.708 5.42C143.708 7.14 145.208 9.1 145.208 11.3C145.208 13.58 142.988 15.92 138.548 18.32C134.548 20.48 131.308 21.56 128.828 21.56C128.388 21.56 128.108 21.42 127.988 21.14C131.428 29.9 134.908 34.28 138.428 34.28C140.748 34.28 142.448 32.54 143.528 29.06C144.248 26.7 144.608 24 144.608 20.96C144.608 19.48 144.548 18.6 144.428 18.32C144.508 18.2 144.588 18.14 144.668 18.14C144.948 18.14 145.188 18.44 145.388 19.04C145.628 19.64 145.748 20.12 145.748 20.48C145.748 23.92 145.148 27.32 143.948 30.68C142.388 35.08 140.228 37.28 137.468 37.28ZM121.628 37.7C119.508 37.7 118.568 35.7 118.808 31.7L118.868 30.8C118.988 28.8 119.208 26.68 119.528 24.44C119.888 22.2 120.328 19.84 120.848 17.36C121.928 12.36 122.468 8.96 122.468 7.16C122.468 6.96 122.468 6.76 122.468 6.56C122.468 6.36 122.448 6.16 122.408 5.96C123.008 4.92 123.568 4.4 124.088 4.4C124.528 4.4 124.748 4.92 124.748 5.96V6.32C124.748 6.84 124.628 7.76 124.388 9.08C124.188 10.36 123.868 12.04 123.428 14.12C122.628 17.84 122.028 21 121.628 23.6C121.228 26.2 121.028 28.26 121.028 29.78C121.028 33.14 121.728 35.4 123.128 36.56C122.848 37.32 122.348 37.7 121.628 37.7ZM165.256 38.36C160.736 38.36 156.936 36.9 153.856 33.98C150.736 31.02 149.176 27.34 149.176 22.94C149.176 16.5 151.896 11.1 157.336 6.74C162.416 2.62 168.236 0.56 174.796 0.56C179.036 0.56 181.596 2.06 182.476 5.06C182.516 5.18 182.536 5.3 182.536 5.42C182.576 5.54 182.596 5.66 182.596 5.78C182.596 6.14 182.496 6.36 182.296 6.44L180.676 4.46C179.356 3.26 177.416 2.66 174.856 2.66C169.136 2.66 163.836 4.88 158.956 9.32C153.916 13.88 151.396 18.98 151.396 24.62C151.396 28.82 152.896 32 155.896 34.16C158.456 36 161.936 36.92 166.336 36.92C169.496 36.92 172.396 36.34 175.036 35.18C178.196 33.74 180.056 31.66 180.616 28.94C180.856 27.66 180.976 25.26 180.976 21.74C180.976 21.34 181.196 20.94 181.636 20.54C182.116 20.14 182.556 19.94 182.956 19.94C183.316 19.94 183.576 20.08 183.736 20.36C183.456 21.48 183.236 22.94 183.076 24.74C182.956 26.54 182.896 28.68 182.896 31.16C182.896 31.6 182.916 32.24 182.956 33.08C183.036 33.92 183.076 34.56 183.076 35C183.076 35.6 182.876 35.9 182.476 35.9C181.596 35.9 180.936 35 180.496 33.2C176.336 36.64 171.256 38.36 165.256 38.36ZM190.05 3.98C188.97 3.98 188.43 3.88 188.43 3.68C188.43 3.2 188.87 2.7 189.75 2.18C190.63 1.66 191.35 1.4 191.91 1.4C192.95 1.4 194.23 1.44 195.75 1.52C197.27 1.56 199.05 1.66 201.09 1.82C203.17 1.98 204.97 2.1 206.49 2.18C208.05 2.22 209.33 2.24 210.33 2.24C212.97 2.24 215.37 2.06 217.53 1.7C217.37 2.22 216.85 2.6 215.97 2.84C213.17 3.6 208.19 3.98 201.03 3.98C200.63 3.98 200.11 3.98 199.47 3.98C198.83 3.98 198.09 3.96 197.25 3.92C196.45 3.88 195.73 3.86 195.09 3.86C194.49 3.86 193.97 3.86 193.53 3.86C193.13 3.86 192.55 3.88 191.79 3.92C191.03 3.96 190.45 3.98 190.05 3.98ZM196.77 36.92C191.21 36.92 188.43 33.76 188.43 27.44C188.43 25.12 188.79 22.38 189.51 19.22C189.27 19.22 188.89 19.2 188.37 19.16C187.89 19.12 187.53 19.1 187.29 19.1C186.57 19.1 186.21 18.94 186.21 18.62C186.21 18.14 186.71 17.64 187.71 17.12C188.15 16.92 188.55 16.76 188.91 16.64C189.31 16.48 189.65 16.38 189.93 16.34C190.21 14.58 190.41 12.84 190.53 11.12C190.65 9.4 190.71 7.74 190.71 6.14C191.63 4.74 192.43 4.04 193.11 4.04C193.55 4.04 193.77 4.42 193.77 5.18C193.77 5.7 193.61 6.92 193.29 8.84C192.97 10.72 192.49 13.3 191.85 16.58L203.85 16.94C204.21 16.94 204.65 16.94 205.17 16.94C205.73 16.9 206.39 16.86 207.15 16.82C207.91 16.78 208.55 16.76 209.07 16.76C209.63 16.72 210.09 16.7 210.45 16.7C210.53 16.7 210.57 16.72 210.57 16.76C210.53 16.8 210.49 16.84 210.45 16.88C210.41 16.92 210.35 16.96 210.27 17C209.07 17.56 207.85 17.96 206.61 18.2C203.61 18.8 198.61 19.1 191.61 19.1C191.41 20.14 191.25 21.14 191.13 22.1C191.01 23.02 190.95 23.92 190.95 24.8C190.95 31.72 194.43 35.18 201.39 35.18C205.43 35.18 209.57 34.1 213.81 31.94L216.27 30.5C217.39 29.86 218.11 29.54 218.43 29.54C218.67 29.54 218.79 29.68 218.79 29.96C218.79 31.12 217.87 32.08 216.03 32.84C213.43 34 210.29 34.96 206.61 35.72C204.77 36.12 203.01 36.42 201.33 36.62C199.69 36.82 198.17 36.92 196.77 36.92Z" fill="#292929"/>
<path d="M52.5798 71.385C51.0865 71.385 50.3398 70.2533 50.3398 67.99C50.3398 66.87 50.5031 65.82 50.8298 64.84C50.9465 64.5367 51.0748 64.21 51.2148 63.86C51.3781 63.4867 51.5765 63.0783 51.8098 62.635C52.3931 61.4917 52.8248 60.92 53.1048 60.92C53.5015 60.92 53.7815 61.0717 53.9448 61.375C53.9915 61.235 54.0965 61.165 54.2598 61.165C54.5865 61.165 54.9015 61.3167 55.2048 61.62C55.5081 61.9233 55.6598 62.2383 55.6598 62.565C55.6598 62.915 55.5198 63.265 55.2398 63.615C54.9598 63.9417 54.6448 64.105 54.2948 64.105C54.2481 64.105 54.2015 64.0817 54.1548 64.035C54.6448 63.265 54.8898 62.6933 54.8898 62.32C54.8898 61.9 54.7381 61.69 54.4348 61.69C53.6415 61.69 52.8365 62.7983 52.0198 65.015C51.4831 66.5083 51.2148 67.71 51.2148 68.62C51.2148 70.09 51.7865 70.825 52.9298 70.825C54.2365 70.825 55.5548 69.95 56.8848 68.2C57.3281 67.6167 57.5731 67.3133 57.6198 67.29C57.6898 67.29 57.7248 67.3367 57.7248 67.43C57.7248 67.4533 57.7015 67.535 57.6548 67.675C56.3715 70.1483 54.6798 71.385 52.5798 71.385ZM58.9624 70.93C57.8657 70.93 57.3174 69.8333 57.3174 67.64C57.3174 66.8233 57.3874 66.0067 57.5274 65.19C57.6674 64.3733 57.8657 63.5567 58.1224 62.74C58.3324 62.0867 58.694 61.5267 59.2074 61.06C59.744 60.57 60.339 60.325 60.9924 60.325C61.2257 60.325 61.354 60.3717 61.3774 60.465C61.3307 60.5583 61.2724 60.5817 61.2024 60.535C60.269 60.7683 59.569 61.725 59.1024 63.405C58.939 64.0117 58.8107 64.6417 58.7174 65.295C58.6474 65.9483 58.6124 66.625 58.6124 67.325C58.6124 69.0283 58.8924 69.88 59.4524 69.88C60.2224 69.88 60.8174 69.04 61.2374 67.36C61.5174 66.1933 61.6574 65.015 61.6574 63.825C61.6574 63.055 61.529 62.4717 61.2724 62.075C61.0157 61.655 60.8874 61.48 60.8874 61.55C60.8874 61.3633 61.0157 61.27 61.2724 61.27C61.9724 61.27 62.3224 62.145 62.3224 63.895C62.3224 65.225 62.0657 66.6133 61.5524 68.06C60.899 69.9733 60.0357 70.93 58.9624 70.93ZM64.1648 71.035C63.9781 71.035 63.8848 70.79 63.8848 70.3C63.8848 69.9267 63.9198 69.5533 63.9898 69.18C64.2931 67.5933 64.5148 66.2283 64.6548 65.085C64.8181 63.9417 64.8998 63.0317 64.8998 62.355C64.8998 61.725 64.8065 61.3167 64.6198 61.13C64.4565 60.9433 64.0598 60.85 63.4298 60.85C63.2898 60.85 63.1031 60.885 62.8698 60.955C62.6131 61.0017 62.4265 61.025 62.3098 61.025C62.2165 61.025 62.1698 61.0017 62.1698 60.955C62.1698 60.885 62.4848 60.6983 63.1148 60.395C64.3515 59.765 64.9931 59.45 65.0398 59.45C65.6231 59.45 65.9148 60.045 65.9148 61.235C65.9148 61.5617 65.8448 62.2617 65.7048 63.335C65.5648 64.4083 65.3665 65.8433 65.1098 67.64L64.9698 68.585L65.0048 68.655C67.1748 64.7817 68.5748 62.845 69.2048 62.845C69.5548 62.845 69.7065 64.35 69.6598 67.36C69.8231 67.15 70.1381 66.7183 70.6048 66.065C71.0948 65.4117 71.7481 64.5483 72.5648 63.475L73.9298 62.18C74.1165 61.9933 74.2565 61.9 74.3498 61.9C74.3965 61.9 74.4198 61.935 74.4198 62.005C74.4198 62.075 74.3848 62.18 74.3148 62.32C73.7548 63.5333 73.4748 65.1667 73.4748 67.22C73.4748 68.97 73.8948 69.845 74.7348 69.845C75.0615 69.845 75.5748 69.4017 76.2748 68.515V68.62C76.2748 68.9 76.0065 69.3783 75.4698 70.055C74.9565 70.7083 74.5598 71.035 74.2798 71.035C73.1365 71.035 72.5648 69.81 72.5648 67.36C72.5648 66.2867 72.6348 65.3183 72.7748 64.455C71.9815 64.8283 71.0365 65.9017 69.9398 67.675L69.4498 68.655C69.3331 68.8417 69.2048 68.935 69.0648 68.935C68.7381 68.935 68.5515 68.41 68.5048 67.36C68.5048 67.1733 68.5048 66.9167 68.5048 66.59C68.5048 66.2633 68.5165 65.8667 68.5398 65.4C68.5165 65.0033 68.4348 64.735 68.2948 64.595C67.6648 64.7817 66.4981 66.6833 64.7948 70.3C64.5615 70.79 64.3515 71.035 64.1648 71.035ZM75.9622 82.515C75.4022 82.515 74.7606 82.2583 74.0372 81.745C73.3139 81.2317 72.9522 80.7183 72.9522 80.205C72.9522 80.0183 73.0106 79.925 73.1272 79.925C73.1272 79.925 73.4306 80.2167 74.0372 80.8C74.6439 81.4067 75.1689 81.71 75.6122 81.71C77.0822 81.71 77.9339 79.015 78.1672 73.625C78.1906 72.5983 78.2372 71.1517 78.3072 69.285C78.3772 67.4183 78.4589 65.1433 78.5522 62.46C77.8056 62.5533 77.1989 62.6233 76.7322 62.67C76.2656 62.6933 75.9506 62.705 75.7872 62.705C75.5306 62.705 75.4022 62.6583 75.4022 62.565C75.4022 62.2617 75.5889 62.0283 75.9622 61.865C76.2889 61.6783 76.5922 61.585 76.8722 61.585C77.0356 61.585 77.1289 61.6317 77.1522 61.725C77.1756 61.795 77.2222 61.83 77.2922 61.83C77.7822 61.83 78.2256 61.7483 78.6222 61.585L79.0072 55.46C79.1006 53.6867 79.5556 52.03 80.3722 50.49C81.3989 48.53 82.6822 47.55 84.2222 47.55C85.0389 47.55 85.7972 47.9467 86.4972 48.74C87.2206 49.5333 87.5822 50.35 87.5822 51.19C87.5822 51.3533 87.5472 51.4583 87.4772 51.505C87.4539 51.4817 87.4306 51.4583 87.4072 51.435C87.3839 51.3883 87.3489 51.33 87.3022 51.26C86.4622 49.3933 85.3306 48.46 83.9072 48.46C81.0606 48.46 79.6372 52.6367 79.6372 60.99V61.76C79.8939 61.7367 80.1389 61.725 80.3722 61.725C80.6056 61.725 80.8156 61.725 81.0022 61.725C82.4489 61.725 83.2539 61.9 83.4172 62.25C83.3006 62.3667 83.2072 62.4367 83.1372 62.46C82.8339 62.4133 82.5189 62.3783 82.1922 62.355C81.8656 62.3083 81.5039 62.285 81.1072 62.285C80.8972 62.285 80.6639 62.285 80.4072 62.285C80.1506 62.285 79.8706 62.2967 79.5672 62.32C79.5439 62.4833 79.5206 62.95 79.4972 63.72C79.4972 64.4667 79.4739 65.5283 79.4272 66.905C79.4039 68.4917 79.3689 69.81 79.3222 70.86C79.2989 71.8867 79.2756 72.6333 79.2522 73.1C79.2056 74.3367 79.1239 75.4567 79.0072 76.46C78.8906 77.4867 78.7506 78.3967 78.5872 79.19C78.1206 81.4067 77.2456 82.515 75.9622 82.515ZM85.1782 70.93C84.0815 70.93 83.5332 69.8333 83.5332 67.64C83.5332 66.8233 83.6032 66.0067 83.7432 65.19C83.8832 64.3733 84.0815 63.5567 84.3382 62.74C84.5482 62.0867 84.9099 61.5267 85.4232 61.06C85.9599 60.57 86.5549 60.325 87.2082 60.325C87.4415 60.325 87.5699 60.3717 87.5932 60.465C87.5465 60.5583 87.4882 60.5817 87.4182 60.535C86.4849 60.7683 85.7849 61.725 85.3182 63.405C85.1549 64.0117 85.0265 64.6417 84.9332 65.295C84.8632 65.9483 84.8282 66.625 84.8282 67.325C84.8282 69.0283 85.1082 69.88 85.6682 69.88C86.4382 69.88 87.0332 69.04 87.4532 67.36C87.7332 66.1933 87.8732 65.015 87.8732 63.825C87.8732 63.055 87.7449 62.4717 87.4882 62.075C87.2315 61.655 87.1032 61.48 87.1032 61.55C87.1032 61.3633 87.2315 61.27 87.4882 61.27C88.1882 61.27 88.5382 62.145 88.5382 63.895C88.5382 65.225 88.2815 66.6133 87.7682 68.06C87.1149 69.9733 86.2515 70.93 85.1782 70.93ZM89.6806 72.05C89.6339 72.0033 89.6106 71.9683 89.6106 71.945C89.6339 71.7817 89.6689 71.49 89.7156 71.07C89.7856 70.65 89.8673 70.0783 89.9606 69.355C90.1473 67.955 90.2873 66.73 90.3806 65.68C90.4739 64.63 90.5206 63.755 90.5206 63.055C90.5206 62.3317 90.4623 61.7717 90.3456 61.375C90.2523 61.2817 90.0656 61.235 89.7856 61.235C89.6456 61.235 89.4356 61.27 89.1556 61.34C88.8756 61.41 88.6773 61.445 88.5606 61.445C88.4439 61.445 88.3856 61.41 88.3856 61.34C88.3856 61.27 88.6889 61.0717 89.2956 60.745C90.5556 60.1383 91.1389 59.835 91.0456 59.835C91.4889 59.835 91.7106 60.5 91.7106 61.83C91.7106 62.4133 91.6056 63.3 91.3956 64.49C91.3023 65.0733 91.2323 65.5867 91.1856 66.03C91.1389 66.45 91.1156 66.8117 91.1156 67.115V67.22C92.4923 64.91 93.8923 63.0433 95.3156 61.62C95.8523 61.2 96.3539 60.99 96.8206 60.99C96.8906 60.99 96.9256 61.0133 96.9256 61.06C96.6923 61.5267 96.5056 61.9 96.3656 62.18C96.2489 62.46 96.1673 62.6583 96.1206 62.775C95.9339 63.2417 95.7823 63.8833 95.6656 64.7C95.6423 65.0033 95.5723 65.155 95.4556 65.155C95.0589 65.155 94.8606 64.595 94.8606 63.475C94.8606 63.3817 94.8606 63.2883 94.8606 63.195C94.8606 63.1017 94.8723 63.0083 94.8956 62.915C94.3123 63.475 93.7756 64.07 93.2856 64.7C92.8189 65.33 92.3873 65.995 91.9906 66.695C91.0339 68.3983 90.6023 69.8917 90.6956 71.175C90.5789 71.315 90.4273 71.455 90.2406 71.595C90.0773 71.735 89.8906 71.8867 89.6806 72.05ZM100.256 71.77C99.3925 71.77 98.9608 70.6383 98.9608 68.375C98.9608 67.7683 98.9958 66.8467 99.0658 65.61C99.1358 64.35 99.2525 62.7867 99.4158 60.92C97.7825 61.13 96.8258 61.235 96.5458 61.235C96.3358 61.235 96.2308 61.1883 96.2308 61.095C96.2308 60.8383 96.4291 60.605 96.8258 60.395C97.1525 60.2083 97.4558 60.115 97.7358 60.115C97.8525 60.115 97.9108 60.1267 97.9108 60.15C97.8875 60.1733 97.8758 60.1967 97.8758 60.22C97.8758 60.2433 97.8641 60.2783 97.8408 60.325H97.9458C98.2258 60.325 98.7275 60.29 99.4508 60.22C99.5208 60.1033 99.5558 59.6133 99.5558 58.75C99.5558 56.4867 99.3225 55.355 98.8558 55.355C98.7158 55.355 98.4708 55.425 98.1208 55.565C97.7941 55.705 97.6191 55.775 97.5958 55.775L97.4908 55.705C97.5141 55.6817 97.5375 55.6583 97.5608 55.635C97.5841 55.6117 97.6191 55.5883 97.6658 55.565L98.8208 54.48C99.4508 53.8967 99.8241 53.5817 99.9408 53.535C100.454 53.535 100.711 54.2817 100.711 55.775C100.711 56.2417 100.687 56.8367 100.641 57.56C100.594 58.26 100.524 59.0883 100.431 60.045C100.757 60.0217 101.049 60.01 101.306 60.01C101.586 59.9867 101.807 59.975 101.971 59.975C103.161 59.975 103.837 60.1267 104.001 60.43C103.907 60.57 103.802 60.64 103.686 60.64C103.546 60.64 103.324 60.6283 103.021 60.605C102.741 60.5817 102.531 60.57 102.391 60.57C102.204 60.57 101.936 60.5933 101.586 60.64C101.259 60.6633 100.862 60.6983 100.396 60.745C100.279 61.7717 100.186 62.7283 100.116 63.615C100.046 64.4783 100.011 65.2483 100.011 65.925C100.011 69.0983 100.407 70.685 101.201 70.685C101.691 70.685 102.192 70.265 102.706 69.425C102.799 69.425 102.846 69.5067 102.846 69.67C102.846 69.9967 102.496 70.4283 101.796 70.965C101.119 71.5017 100.606 71.77 100.256 71.77ZM109.663 82.515C109.103 82.515 108.462 82.2583 107.738 81.745C107.015 81.2317 106.653 80.7183 106.653 80.205C106.653 80.0183 106.712 79.925 106.828 79.925C106.828 79.925 107.132 80.2167 107.738 80.8C108.345 81.4067 108.87 81.71 109.313 81.71C110.783 81.71 111.635 79.015 111.868 73.625C111.892 72.5983 111.938 71.1517 112.008 69.285C112.078 67.4183 112.16 65.1433 112.253 62.46C111.507 62.5533 110.9 62.6233 110.433 62.67C109.967 62.6933 109.652 62.705 109.488 62.705C109.232 62.705 109.103 62.6583 109.103 62.565C109.103 62.2617 109.29 62.0283 109.663 61.865C109.99 61.6783 110.293 61.585 110.573 61.585C110.737 61.585 110.83 61.6317 110.853 61.725C110.877 61.795 110.923 61.83 110.993 61.83C111.483 61.83 111.927 61.7483 112.323 61.585L112.708 55.46C112.802 53.6867 113.257 52.03 114.073 50.49C115.1 48.53 116.383 47.55 117.923 47.55C118.74 47.55 119.498 47.9467 120.198 48.74C120.922 49.5333 121.283 50.35 121.283 51.19C121.283 51.3533 121.248 51.4583 121.178 51.505C121.155 51.4817 121.132 51.4583 121.108 51.435C121.085 51.3883 121.05 51.33 121.003 51.26C120.163 49.3933 119.032 48.46 117.608 48.46C114.762 48.46 113.338 52.6367 113.338 60.99V61.76C113.595 61.7367 113.84 61.725 114.073 61.725C114.307 61.725 114.517 61.725 114.703 61.725C116.15 61.725 116.955 61.9 117.118 62.25C117.002 62.3667 116.908 62.4367 116.838 62.46C116.535 62.4133 116.22 62.3783 115.893 62.355C115.567 62.3083 115.205 62.285 114.808 62.285C114.598 62.285 114.365 62.285 114.108 62.285C113.852 62.285 113.572 62.2967 113.268 62.32C113.245 62.4833 113.222 62.95 113.198 63.72C113.198 64.4667 113.175 65.5283 113.128 66.905C113.105 68.4917 113.07 69.81 113.023 70.86C113 71.8867 112.977 72.6333 112.953 73.1C112.907 74.3367 112.825 75.4567 112.708 76.46C112.592 77.4867 112.452 78.3967 112.288 79.19C111.822 81.4067 110.947 82.515 109.663 82.515ZM118.879 70.93C117.783 70.93 117.234 69.8333 117.234 67.64C117.234 66.8233 117.304 66.0067 117.444 65.19C117.584 64.3733 117.783 63.5567 118.039 62.74C118.249 62.0867 118.611 61.5267 119.124 61.06C119.661 60.57 120.256 60.325 120.909 60.325C121.143 60.325 121.271 60.3717 121.294 60.465C121.248 60.5583 121.189 60.5817 121.119 60.535C120.186 60.7683 119.486 61.725 119.019 63.405C118.856 64.0117 118.728 64.6417 118.634 65.295C118.564 65.9483 118.529 66.625 118.529 67.325C118.529 69.0283 118.809 69.88 119.369 69.88C120.139 69.88 120.734 69.04 121.154 67.36C121.434 66.1933 121.574 65.015 121.574 63.825C121.574 63.055 121.446 62.4717 121.189 62.075C120.933 61.655 120.804 61.48 120.804 61.55C120.804 61.3633 120.933 61.27 121.189 61.27C121.889 61.27 122.239 62.145 122.239 63.895C122.239 65.225 121.983 66.6133 121.469 68.06C120.816 69.9733 119.953 70.93 118.879 70.93ZM123.382 72.05C123.335 72.0033 123.312 71.9683 123.312 71.945C123.335 71.7817 123.37 71.49 123.417 71.07C123.487 70.65 123.568 70.0783 123.662 69.355C123.848 67.955 123.988 66.73 124.082 65.68C124.175 64.63 124.222 63.755 124.222 63.055C124.222 62.3317 124.163 61.7717 124.047 61.375C123.953 61.2817 123.767 61.235 123.487 61.235C123.347 61.235 123.137 61.27 122.857 61.34C122.577 61.41 122.378 61.445 122.262 61.445C122.145 61.445 122.087 61.41 122.087 61.34C122.087 61.27 122.39 61.0717 122.997 60.745C124.257 60.1383 124.84 59.835 124.747 59.835C125.19 59.835 125.412 60.5 125.412 61.83C125.412 62.4133 125.307 63.3 125.097 64.49C125.003 65.0733 124.933 65.5867 124.887 66.03C124.84 66.45 124.817 66.8117 124.817 67.115V67.22C126.193 64.91 127.593 63.0433 129.017 61.62C129.553 61.2 130.055 60.99 130.522 60.99C130.592 60.99 130.627 61.0133 130.627 61.06C130.393 61.5267 130.207 61.9 130.067 62.18C129.95 62.46 129.868 62.6583 129.822 62.775C129.635 63.2417 129.483 63.8833 129.367 64.7C129.343 65.0033 129.273 65.155 129.157 65.155C128.76 65.155 128.562 64.595 128.562 63.475C128.562 63.3817 128.562 63.2883 128.562 63.195C128.562 63.1017 128.573 63.0083 128.597 62.915C128.013 63.475 127.477 64.07 126.987 64.7C126.52 65.33 126.088 65.995 125.692 66.695C124.735 68.3983 124.303 69.8917 124.397 71.175C124.28 71.315 124.128 71.455 123.942 71.595C123.778 71.735 123.592 71.8867 123.382 72.05ZM136.778 73.24C136.754 73.2167 136.743 73.1933 136.743 73.17C136.766 73.0533 136.801 72.855 136.848 72.575C136.894 72.295 136.941 71.9333 136.988 71.49C137.431 68.27 137.758 65.2717 137.968 62.495C138.178 59.7183 138.283 57.1633 138.283 54.83C138.283 52.52 137.828 51.365 136.918 51.365C136.848 51.365 136.731 51.3883 136.568 51.435C136.404 51.4817 136.288 51.505 136.218 51.505C136.101 51.505 136.043 51.4467 136.043 51.33C136.043 51.1667 136.451 50.945 137.268 50.665C138.038 50.3617 138.574 50.21 138.878 50.21C139.414 50.21 139.683 50.6883 139.683 51.645C139.683 52.345 139.659 53.115 139.613 53.955C139.566 54.795 139.496 55.6933 139.403 56.65L138.458 67.185L141.573 63.09C141.829 62.74 142.273 62.0167 142.903 60.92C143.229 60.3833 143.731 60.115 144.408 60.115C144.711 60.115 144.898 60.185 144.968 60.325C144.944 60.3483 144.909 60.3717 144.863 60.395C144.839 60.4183 144.793 60.4417 144.723 60.465C144.069 60.745 143.521 61.7717 143.078 63.545C142.704 64.945 142.518 66.17 142.518 67.22C142.518 68.97 142.938 69.845 143.778 69.845C144.058 69.845 144.384 69.6233 144.758 69.18L145.353 68.515C145.376 68.5383 145.388 68.5617 145.388 68.585C145.388 68.8883 145.108 69.3783 144.548 70.055C144.034 70.7083 143.626 71.035 143.323 71.035C142.203 71.035 141.643 69.88 141.643 67.57C141.643 65.54 141.689 64.35 141.783 64C141.619 64.1633 141.409 64.3967 141.153 64.7C140.919 64.98 140.616 65.3417 140.243 65.785C138.773 67.605 137.979 69.7983 137.863 72.365C137.349 72.9017 136.988 73.1933 136.778 73.24ZM147.488 70.93C146.391 70.93 145.843 69.8333 145.843 67.64C145.843 66.8233 145.913 66.0067 146.053 65.19C146.193 64.3733 146.391 63.5567 146.648 62.74C146.858 62.0867 147.219 61.5267 147.733 61.06C148.269 60.57 148.864 60.325 149.518 60.325C149.751 60.325 149.879 60.3717 149.903 60.465C149.856 60.5583 149.798 60.5817 149.728 60.535C148.794 60.7683 148.094 61.725 147.628 63.405C147.464 64.0117 147.336 64.6417 147.243 65.295C147.173 65.9483 147.138 66.625 147.138 67.325C147.138 69.0283 147.418 69.88 147.978 69.88C148.748 69.88 149.343 69.04 149.763 67.36C150.043 66.1933 150.183 65.015 150.183 63.825C150.183 63.055 150.054 62.4717 149.798 62.075C149.541 61.655 149.413 61.48 149.413 61.55C149.413 61.3633 149.541 61.27 149.798 61.27C150.498 61.27 150.848 62.145 150.848 63.895C150.848 65.225 150.591 66.6133 150.078 68.06C149.424 69.9733 148.561 70.93 147.488 70.93ZM152.69 71.035C152.504 71.035 152.41 70.79 152.41 70.3C152.41 69.9267 152.445 69.5533 152.515 69.18C152.819 67.5933 153.04 66.2283 153.18 65.085C153.344 63.9417 153.425 63.0317 153.425 62.355C153.425 61.725 153.332 61.3167 153.145 61.13C152.982 60.9433 152.585 60.85 151.955 60.85C151.815 60.85 151.629 60.885 151.395 60.955C151.139 61.0017 150.952 61.025 150.835 61.025C150.742 61.025 150.695 61.0017 150.695 60.955C150.695 60.885 151.01 60.6983 151.64 60.395C152.877 59.765 153.519 59.45 153.565 59.45C154.149 59.45 154.44 60.045 154.44 61.235C154.44 61.5617 154.37 62.2617 154.23 63.335C154.09 64.4083 153.892 65.8433 153.635 67.64L153.495 68.585L153.53 68.655C155.7 64.7817 157.1 62.845 157.73 62.845C158.08 62.845 158.232 64.35 158.185 67.36C158.349 67.15 158.664 66.7183 159.13 66.065C159.62 65.4117 160.274 64.5483 161.09 63.475L162.455 62.18C162.642 61.9933 162.782 61.9 162.875 61.9C162.922 61.9 162.945 61.935 162.945 62.005C162.945 62.075 162.91 62.18 162.84 62.32C162.28 63.5333 162 65.1667 162 67.22C162 68.97 162.42 69.845 163.26 69.845C163.587 69.845 164.1 69.4017 164.8 68.515V68.62C164.8 68.9 164.532 69.3783 163.995 70.055C163.482 70.7083 163.085 71.035 162.805 71.035C161.662 71.035 161.09 69.81 161.09 67.36C161.09 66.2867 161.16 65.3183 161.3 64.455C160.507 64.8283 159.562 65.9017 158.465 67.675L157.975 68.655C157.859 68.8417 157.73 68.935 157.59 68.935C157.264 68.935 157.077 68.41 157.03 67.36C157.03 67.1733 157.03 66.9167 157.03 66.59C157.03 66.2633 157.042 65.8667 157.065 65.4C157.042 65.0033 156.96 64.735 156.82 64.595C156.19 64.7817 155.024 66.6833 153.32 70.3C153.087 70.79 152.877 71.035 152.69 71.035ZM167.323 71.385C165.713 71.385 164.908 70.1717 164.908 67.745C164.908 67.3483 164.919 66.9633 164.943 66.59C164.989 66.1933 165.059 65.8083 165.153 65.435C164.873 65.2483 164.733 65.0967 164.733 64.98C164.733 64.77 164.978 64.5833 165.468 64.42C165.701 63.72 166.039 62.9267 166.483 62.04C167.113 60.8267 167.591 60.22 167.918 60.22C168.291 60.22 168.571 60.3833 168.758 60.71C168.898 60.3833 169.061 60.22 169.248 60.22C169.901 60.22 170.228 60.6167 170.228 61.41C170.228 62.0167 170.111 62.5533 169.878 63.02C170.041 63.2067 170.123 63.3817 170.123 63.545C170.123 63.5917 170.088 63.6383 170.018 63.685L168.058 64.315C167.684 64.4317 167.346 64.5833 167.043 64.77C166.763 64.9567 166.506 65.155 166.273 65.365C166.016 66.135 165.888 66.9633 165.888 67.85C165.888 69.81 166.494 70.79 167.708 70.79C169.318 70.79 170.834 69.4833 172.258 66.87C172.328 66.7533 172.386 66.695 172.433 66.695C172.503 66.695 172.538 66.765 172.538 66.905C172.538 67.0217 172.503 67.15 172.433 67.29C171.873 68.41 171.196 69.3317 170.403 70.055C169.399 70.9417 168.373 71.385 167.323 71.385ZM166.693 64.14C166.926 64.07 167.194 63.9883 167.498 63.895C167.824 63.7783 168.174 63.6383 168.548 63.475C168.664 63.3817 168.816 63.09 169.003 62.6C169.166 62.18 169.248 61.8417 169.248 61.585C169.248 61.2817 169.131 61.13 168.898 61.13C168.641 61.13 168.221 61.5617 167.638 62.425C167.031 63.265 166.716 63.8367 166.693 64.14Z" fill="#292929"/>
</svg>
