<svg width="1243" height="102" viewBox="0 0 1243 102" fill="none" xmlns="http://www.w3.org/2000/svg">
<path d="M520.113 22.98C519.033 22.98 518.493 22.88 518.493 22.68C518.493 22.2 518.933 21.7 519.813 21.18C520.693 20.66 521.413 20.4 521.973 20.4C523.013 20.4 524.293 20.44 525.813 20.52C527.333 20.56 529.113 20.66 531.153 20.82C533.233 20.98 535.033 21.1 536.553 21.18C538.113 21.22 539.393 21.24 540.393 21.24C543.033 21.24 545.433 21.06 547.593 20.7C547.433 21.22 546.913 21.6 546.033 21.84C543.233 22.6 538.253 22.98 531.093 22.98C530.693 22.98 530.173 22.98 529.533 22.98C528.893 22.98 528.153 22.96 527.313 22.92C526.513 22.88 525.793 22.86 525.153 22.86C524.553 22.86 524.033 22.86 523.593 22.86C523.193 22.86 522.613 22.88 521.853 22.92C521.093 22.96 520.513 22.98 520.113 22.98ZM526.833 55.92C521.273 55.92 518.493 52.76 518.493 46.44C518.493 44.12 518.853 41.38 519.573 38.22C519.333 38.22 518.953 38.2 518.433 38.16C517.953 38.12 517.593 38.1 517.353 38.1C516.633 38.1 516.273 37.94 516.273 37.62C516.273 37.14 516.773 36.64 517.773 36.12C518.213 35.92 518.613 35.76 518.973 35.64C519.373 35.48 519.713 35.38 519.993 35.34C520.273 33.58 520.473 31.84 520.593 30.12C520.713 28.4 520.773 26.74 520.773 25.14C521.693 23.74 522.493 23.04 523.173 23.04C523.613 23.04 523.833 23.42 523.833 24.18C523.833 24.7 523.673 25.92 523.353 27.84C523.033 29.72 522.553 32.3 521.913 35.58L533.913 35.94C534.273 35.94 534.713 35.94 535.233 35.94C535.793 35.9 536.453 35.86 537.213 35.82C537.973 35.78 538.613 35.76 539.133 35.76C539.693 35.72 540.153 35.7 540.513 35.7C540.593 35.7 540.633 35.72 540.633 35.76C540.593 35.8 540.553 35.84 540.513 35.88C540.473 35.92 540.413 35.96 540.333 36C539.133 36.56 537.913 36.96 536.673 37.2C533.673 37.8 528.673 38.1 521.673 38.1C521.473 39.14 521.313 40.14 521.193 41.1C521.073 42.02 521.013 42.92 521.013 43.8C521.013 50.72 524.493 54.18 531.453 54.18C535.493 54.18 539.633 53.1 543.873 50.94L546.333 49.5C547.453 48.86 548.173 48.54 548.493 48.54C548.733 48.54 548.853 48.68 548.853 48.96C548.853 50.12 547.933 51.08 546.093 51.84C543.493 53 540.353 53.96 536.673 54.72C534.833 55.12 533.073 55.42 531.393 55.62C529.753 55.82 528.233 55.92 526.833 55.92ZM590.419 54C587.619 54 585.279 45.84 583.399 29.52C582.279 32 581.139 34.34 579.979 36.54C578.819 38.74 577.659 40.78 576.499 42.66C572.619 49.06 569.499 52.26 567.139 52.26C564.419 52.26 562.219 48.68 560.539 41.52C559.899 38.8 559.419 36.2 559.099 33.72C558.779 31.24 558.619 28.9 558.619 26.7C558.619 23.34 559.199 21.56 560.359 21.36L560.659 26.28C560.979 31.32 561.579 35.7 562.459 39.42C564.019 45.82 566.179 49.02 568.939 49.02C570.859 49.02 573.599 45.86 577.159 39.54C579.999 34.5 581.979 30.3 583.099 26.94L582.679 23.04C582.679 21.08 583.299 20.1 584.539 20.1C585.579 20.1 586.099 21.1 586.099 23.1C586.099 24.26 585.919 25.06 585.559 25.5V26.52C585.559 28.36 585.639 30.26 585.799 32.22C585.959 34.18 586.199 36.2 586.519 38.28C586.719 39.52 586.959 40.74 587.239 41.94C587.519 43.14 587.839 44.32 588.199 45.48C589.399 49.28 590.699 51.18 592.099 51.18C592.299 51.18 592.559 51.1 592.879 50.94C593.239 50.74 593.459 50.64 593.539 50.64L593.719 50.82C593.719 51.02 593.119 51.82 591.919 53.22C591.519 53.74 591.019 54 590.419 54ZM550.759 55.44C549.799 55.44 549.319 54.1 549.319 51.42C549.319 46.38 551.219 38.16 555.019 26.76C555.179 26.32 555.399 25.68 555.679 24.84C555.999 24 556.379 22.98 556.819 21.78C557.219 20.66 557.739 20.1 558.379 20.1C558.699 20.1 558.879 20.3 558.919 20.7C557.679 23.86 556.619 26.6 555.739 28.92C554.859 31.2 554.179 33.06 553.699 34.5C551.859 40.06 550.939 44.82 550.939 48.78C550.939 49.38 551.099 50.38 551.419 51.78C551.579 52.42 551.699 52.96 551.779 53.4C551.859 53.84 551.899 54.16 551.899 54.36C551.899 55.08 551.519 55.44 550.759 55.44ZM599.274 22.98C598.194 22.98 597.654 22.88 597.654 22.68C597.654 22.2 598.094 21.7 598.974 21.18C599.854 20.66 600.574 20.4 601.134 20.4C602.174 20.4 603.454 20.44 604.974 20.52C606.494 20.56 608.274 20.66 610.314 20.82C612.394 20.98 614.194 21.1 615.714 21.18C617.274 21.22 618.554 21.24 619.554 21.24C622.194 21.24 624.594 21.06 626.754 20.7C626.594 21.22 626.074 21.6 625.194 21.84C622.394 22.6 617.414 22.98 610.254 22.98C609.854 22.98 609.334 22.98 608.694 22.98C608.054 22.98 607.314 22.96 606.474 22.92C605.674 22.88 604.954 22.86 604.314 22.86C603.714 22.86 603.194 22.86 602.754 22.86C602.354 22.86 601.774 22.88 601.014 22.92C600.254 22.96 599.674 22.98 599.274 22.98ZM605.994 55.92C600.434 55.92 597.654 52.76 597.654 46.44C597.654 44.12 598.014 41.38 598.734 38.22C598.494 38.22 598.114 38.2 597.594 38.16C597.114 38.12 596.754 38.1 596.514 38.1C595.794 38.1 595.434 37.94 595.434 37.62C595.434 37.14 595.934 36.64 596.934 36.12C597.374 35.92 597.774 35.76 598.134 35.64C598.534 35.48 598.874 35.38 599.154 35.34C599.434 33.58 599.634 31.84 599.754 30.12C599.874 28.4 599.934 26.74 599.934 25.14C600.854 23.74 601.654 23.04 602.334 23.04C602.774 23.04 602.994 23.42 602.994 24.18C602.994 24.7 602.834 25.92 602.514 27.84C602.194 29.72 601.714 32.3 601.074 35.58L613.074 35.94C613.434 35.94 613.874 35.94 614.394 35.94C614.954 35.9 615.614 35.86 616.374 35.82C617.134 35.78 617.774 35.76 618.294 35.76C618.854 35.72 619.314 35.7 619.674 35.7C619.754 35.7 619.794 35.72 619.794 35.76C619.754 35.8 619.714 35.84 619.674 35.88C619.634 35.92 619.574 35.96 619.494 36C618.294 36.56 617.074 36.96 615.834 37.2C612.834 37.8 607.834 38.1 600.834 38.1C600.634 39.14 600.474 40.14 600.354 41.1C600.234 42.02 600.174 42.92 600.174 43.8C600.174 50.72 603.654 54.18 610.614 54.18C614.654 54.18 618.794 53.1 623.034 50.94L625.494 49.5C626.614 48.86 627.334 48.54 627.654 48.54C627.894 48.54 628.014 48.68 628.014 48.96C628.014 50.12 627.094 51.08 625.254 51.84C622.654 53 619.514 53.96 615.834 54.72C613.994 55.12 612.234 55.42 610.554 55.62C608.914 55.82 607.394 55.92 605.994 55.92ZM648.879 56.28C645.519 56.28 642.239 52.34 639.039 44.46C638.799 43.62 638.379 42.42 637.779 40.86C637.579 40.46 637.239 40.16 636.759 39.96C636.399 39.76 636.219 39.3 636.219 38.58C636.219 36.86 636.599 36 637.359 36C637.599 36 637.799 36.08 637.959 36.24C638.119 36.68 638.319 37.22 638.559 37.86C638.799 38.5 639.079 39.26 639.399 40.14V40.02C639.399 39.82 639.539 39.7 639.819 39.66C640.819 39.5 641.739 39.34 642.579 39.18C643.419 39.02 644.159 38.84 644.799 38.64C646.839 38.04 648.759 37.18 650.559 36.06C653.159 34.5 654.459 33 654.459 31.56C654.459 29.84 653.159 28.2 650.559 26.64C648.039 25.04 645.139 24 641.859 23.52C639.699 23.16 636.599 22.98 632.559 22.98C631.919 22.98 631.299 23.02 630.699 23.1C630.139 23.14 629.619 23.2 629.139 23.28C629.259 22.28 629.699 21.64 630.459 21.36C630.659 21.28 630.959 21.22 631.359 21.18C631.799 21.14 632.339 21.1 632.979 21.06C633.419 21.02 633.899 21 634.419 21C634.979 21 635.579 21 636.219 21H637.239C643.159 21 648.119 22.14 652.119 24.42C655.119 26.14 656.619 28.1 656.619 30.3C656.619 32.58 654.399 34.92 649.959 37.32C645.959 39.48 642.719 40.56 640.239 40.56C639.799 40.56 639.519 40.42 639.399 40.14C642.839 48.9 646.319 53.28 649.839 53.28C652.159 53.28 653.859 51.54 654.939 48.06C655.659 45.7 656.019 43 656.019 39.96C656.019 38.48 655.959 37.6 655.839 37.32C655.919 37.2 655.999 37.14 656.079 37.14C656.359 37.14 656.599 37.44 656.799 38.04C657.039 38.64 657.159 39.12 657.159 39.48C657.159 42.92 656.559 46.32 655.359 49.68C653.799 54.08 651.639 56.28 648.879 56.28ZM633.039 56.7C630.919 56.7 629.979 54.7 630.219 50.7L630.279 49.8C630.399 47.8 630.619 45.68 630.939 43.44C631.299 41.2 631.739 38.84 632.259 36.36C633.339 31.36 633.879 27.96 633.879 26.16C633.879 25.96 633.879 25.76 633.879 25.56C633.879 25.36 633.859 25.16 633.819 24.96C634.419 23.92 634.979 23.4 635.499 23.4C635.939 23.4 636.159 23.92 636.159 24.96V25.32C636.159 25.84 636.039 26.76 635.799 28.08C635.599 29.36 635.279 31.04 634.839 33.12C634.039 36.84 633.439 40 633.039 42.6C632.639 45.2 632.439 47.26 632.439 48.78C632.439 52.14 633.139 54.4 634.539 55.56C634.259 56.32 633.759 56.7 633.039 56.7ZM676.667 57.36C672.147 57.36 668.347 55.9 665.267 52.98C662.147 50.02 660.587 46.34 660.587 41.94C660.587 35.5 663.307 30.1 668.747 25.74C673.827 21.62 679.647 19.56 686.207 19.56C690.447 19.56 693.007 21.06 693.887 24.06C693.927 24.18 693.947 24.3 693.947 24.42C693.987 24.54 694.007 24.66 694.007 24.78C694.007 25.14 693.907 25.36 693.707 25.44L692.087 23.46C690.767 22.26 688.827 21.66 686.267 21.66C680.547 21.66 675.247 23.88 670.367 28.32C665.327 32.88 662.807 37.98 662.807 43.62C662.807 47.82 664.307 51 667.307 53.16C669.867 55 673.347 55.92 677.747 55.92C680.907 55.92 683.807 55.34 686.447 54.18C689.607 52.74 691.467 50.66 692.027 47.94C692.267 46.66 692.387 44.26 692.387 40.74C692.387 40.34 692.607 39.94 693.047 39.54C693.527 39.14 693.967 38.94 694.367 38.94C694.727 38.94 694.987 39.08 695.147 39.36C694.867 40.48 694.647 41.94 694.487 43.74C694.367 45.54 694.307 47.68 694.307 50.16C694.307 50.6 694.327 51.24 694.367 52.08C694.447 52.92 694.487 53.56 694.487 54C694.487 54.6 694.287 54.9 693.887 54.9C693.007 54.9 692.347 54 691.907 52.2C687.747 55.64 682.667 57.36 676.667 57.36ZM701.461 22.98C700.381 22.98 699.841 22.88 699.841 22.68C699.841 22.2 700.281 21.7 701.161 21.18C702.041 20.66 702.761 20.4 703.321 20.4C704.361 20.4 705.641 20.44 707.161 20.52C708.681 20.56 710.461 20.66 712.501 20.82C714.581 20.98 716.381 21.1 717.901 21.18C719.461 21.22 720.741 21.24 721.741 21.24C724.381 21.24 726.781 21.06 728.941 20.7C728.781 21.22 728.261 21.6 727.381 21.84C724.581 22.6 719.601 22.98 712.441 22.98C712.041 22.98 711.521 22.98 710.881 22.98C710.241 22.98 709.501 22.96 708.661 22.92C707.861 22.88 707.141 22.86 706.501 22.86C705.901 22.86 705.381 22.86 704.941 22.86C704.541 22.86 703.961 22.88 703.201 22.92C702.441 22.96 701.861 22.98 701.461 22.98ZM708.181 55.92C702.621 55.92 699.841 52.76 699.841 46.44C699.841 44.12 700.201 41.38 700.921 38.22C700.681 38.22 700.301 38.2 699.781 38.16C699.301 38.12 698.941 38.1 698.701 38.1C697.981 38.1 697.621 37.94 697.621 37.62C697.621 37.14 698.121 36.64 699.121 36.12C699.561 35.92 699.961 35.76 700.321 35.64C700.721 35.48 701.061 35.38 701.341 35.34C701.621 33.58 701.821 31.84 701.941 30.12C702.061 28.4 702.121 26.74 702.121 25.14C703.041 23.74 703.841 23.04 704.521 23.04C704.961 23.04 705.181 23.42 705.181 24.18C705.181 24.7 705.021 25.92 704.701 27.84C704.381 29.72 703.901 32.3 703.261 35.58L715.261 35.94C715.621 35.94 716.061 35.94 716.581 35.94C717.141 35.9 717.801 35.86 718.561 35.82C719.321 35.78 719.961 35.76 720.481 35.76C721.041 35.72 721.501 35.7 721.861 35.7C721.941 35.7 721.981 35.72 721.981 35.76C721.941 35.8 721.901 35.84 721.861 35.88C721.821 35.92 721.761 35.96 721.681 36C720.481 36.56 719.261 36.96 718.021 37.2C715.021 37.8 710.021 38.1 703.021 38.1C702.821 39.14 702.661 40.14 702.541 41.1C702.421 42.02 702.361 42.92 702.361 43.8C702.361 50.72 705.841 54.18 712.801 54.18C716.841 54.18 720.981 53.1 725.221 50.94L727.681 49.5C728.801 48.86 729.521 48.54 729.841 48.54C730.081 48.54 730.201 48.68 730.201 48.96C730.201 50.12 729.281 51.08 727.441 51.84C724.841 53 721.701 53.96 718.021 54.72C716.181 55.12 714.421 55.42 712.741 55.62C711.101 55.82 709.581 55.92 708.181 55.92Z" fill="#292929"/>
<path d="M945 1L945 89M316 1.00001L316 89" stroke="#292929"/>
<line x1="316" y1="88.5" x2="506" y2="88.5" stroke="#292929"/>
<path d="M735 88L945 88" stroke="#292929"/>
<path d="M563.58 89.385C562.086 89.385 561.34 88.2533 561.34 85.99C561.34 84.87 561.503 83.82 561.83 82.84C561.946 82.5367 562.075 82.21 562.215 81.86C562.378 81.4867 562.576 81.0783 562.81 80.635C563.393 79.4917 563.825 78.92 564.105 78.92C564.501 78.92 564.781 79.0717 564.945 79.375C564.991 79.235 565.096 79.165 565.26 79.165C565.586 79.165 565.901 79.3167 566.205 79.62C566.508 79.9233 566.66 80.2383 566.66 80.565C566.66 80.915 566.52 81.265 566.24 81.615C565.96 81.9417 565.645 82.105 565.295 82.105C565.248 82.105 565.201 82.0817 565.155 82.035C565.645 81.265 565.89 80.6933 565.89 80.32C565.89 79.9 565.738 79.69 565.435 79.69C564.641 79.69 563.836 80.7983 563.02 83.015C562.483 84.5083 562.215 85.71 562.215 86.62C562.215 88.09 562.786 88.825 563.93 88.825C565.236 88.825 566.555 87.95 567.885 86.2C568.328 85.6167 568.573 85.3133 568.62 85.29C568.69 85.29 568.725 85.3367 568.725 85.43C568.725 85.4533 568.701 85.535 568.655 85.675C567.371 88.1483 565.68 89.385 563.58 89.385ZM569.962 88.93C568.866 88.93 568.317 87.8333 568.317 85.64C568.317 84.8233 568.387 84.0067 568.527 83.19C568.667 82.3733 568.866 81.5567 569.122 80.74C569.332 80.0867 569.694 79.5267 570.207 79.06C570.744 78.57 571.339 78.325 571.992 78.325C572.226 78.325 572.354 78.3717 572.377 78.465C572.331 78.5583 572.272 78.5817 572.202 78.535C571.269 78.7683 570.569 79.725 570.102 81.405C569.939 82.0117 569.811 82.6417 569.717 83.295C569.647 83.9483 569.612 84.625 569.612 85.325C569.612 87.0283 569.892 87.88 570.452 87.88C571.222 87.88 571.817 87.04 572.237 85.36C572.517 84.1933 572.657 83.015 572.657 81.825C572.657 81.055 572.529 80.4717 572.272 80.075C572.016 79.655 571.887 79.48 571.887 79.55C571.887 79.3633 572.016 79.27 572.272 79.27C572.972 79.27 573.322 80.145 573.322 81.895C573.322 83.225 573.066 84.6133 572.552 86.06C571.899 87.9733 571.036 88.93 569.962 88.93ZM575.165 89.035C574.978 89.035 574.885 88.79 574.885 88.3C574.885 87.9267 574.92 87.5533 574.99 87.18C575.293 85.5933 575.515 84.2283 575.655 83.085C575.818 81.9417 575.9 81.0317 575.9 80.355C575.9 79.725 575.806 79.3167 575.62 79.13C575.456 78.9433 575.06 78.85 574.43 78.85C574.29 78.85 574.103 78.885 573.87 78.955C573.613 79.0017 573.426 79.025 573.31 79.025C573.216 79.025 573.17 79.0017 573.17 78.955C573.17 78.885 573.485 78.6983 574.115 78.395C575.351 77.765 575.993 77.45 576.04 77.45C576.623 77.45 576.915 78.045 576.915 79.235C576.915 79.5617 576.845 80.2617 576.705 81.335C576.565 82.4083 576.366 83.8433 576.11 85.64L575.97 86.585L576.005 86.655C578.175 82.7817 579.575 80.845 580.205 80.845C580.555 80.845 580.706 82.35 580.66 85.36C580.823 85.15 581.138 84.7183 581.605 84.065C582.095 83.4117 582.748 82.5483 583.565 81.475L584.93 80.18C585.116 79.9933 585.256 79.9 585.35 79.9C585.396 79.9 585.42 79.935 585.42 80.005C585.42 80.075 585.385 80.18 585.315 80.32C584.755 81.5333 584.475 83.1667 584.475 85.22C584.475 86.97 584.895 87.845 585.735 87.845C586.061 87.845 586.575 87.4017 587.275 86.515V86.62C587.275 86.9 587.006 87.3783 586.47 88.055C585.956 88.7083 585.56 89.035 585.28 89.035C584.136 89.035 583.565 87.81 583.565 85.36C583.565 84.2867 583.635 83.3183 583.775 82.455C582.981 82.8283 582.036 83.9017 580.94 85.675L580.45 86.655C580.333 86.8417 580.205 86.935 580.065 86.935C579.738 86.935 579.551 86.41 579.505 85.36C579.505 85.1733 579.505 84.9167 579.505 84.59C579.505 84.2633 579.516 83.8667 579.54 83.4C579.516 83.0033 579.435 82.735 579.295 82.595C578.665 82.7817 577.498 84.6833 575.795 88.3C575.561 88.79 575.351 89.035 575.165 89.035ZM586.962 100.515C586.402 100.515 585.761 100.258 585.037 99.745C584.314 99.2317 583.952 98.7183 583.952 98.205C583.952 98.0183 584.011 97.925 584.127 97.925C584.127 97.925 584.431 98.2167 585.037 98.8C585.644 99.4067 586.169 99.71 586.612 99.71C588.082 99.71 588.934 97.015 589.167 91.625C589.191 90.5983 589.237 89.1517 589.307 87.285C589.377 85.4183 589.459 83.1433 589.552 80.46C588.806 80.5533 588.199 80.6233 587.732 80.67C587.266 80.6933 586.951 80.705 586.787 80.705C586.531 80.705 586.402 80.6583 586.402 80.565C586.402 80.2617 586.589 80.0283 586.962 79.865C587.289 79.6783 587.592 79.585 587.872 79.585C588.036 79.585 588.129 79.6317 588.152 79.725C588.176 79.795 588.222 79.83 588.292 79.83C588.782 79.83 589.226 79.7483 589.622 79.585L590.007 73.46C590.101 71.6867 590.556 70.03 591.372 68.49C592.399 66.53 593.682 65.55 595.222 65.55C596.039 65.55 596.797 65.9467 597.497 66.74C598.221 67.5333 598.582 68.35 598.582 69.19C598.582 69.3533 598.547 69.4583 598.477 69.505C598.454 69.4817 598.431 69.4583 598.407 69.435C598.384 69.3883 598.349 69.33 598.302 69.26C597.462 67.3933 596.331 66.46 594.907 66.46C592.061 66.46 590.637 70.6367 590.637 78.99V79.76C590.894 79.7367 591.139 79.725 591.372 79.725C591.606 79.725 591.816 79.725 592.002 79.725C593.449 79.725 594.254 79.9 594.417 80.25C594.301 80.3667 594.207 80.4367 594.137 80.46C593.834 80.4133 593.519 80.3783 593.192 80.355C592.866 80.3083 592.504 80.285 592.107 80.285C591.897 80.285 591.664 80.285 591.407 80.285C591.151 80.285 590.871 80.2967 590.567 80.32C590.544 80.4833 590.521 80.95 590.497 81.72C590.497 82.4667 590.474 83.5283 590.427 84.905C590.404 86.4917 590.369 87.81 590.322 88.86C590.299 89.8867 590.276 90.6333 590.252 91.1C590.206 92.3367 590.124 93.4567 590.007 94.46C589.891 95.4867 589.751 96.3967 589.587 97.19C589.121 99.4067 588.246 100.515 586.962 100.515ZM596.178 88.93C595.082 88.93 594.533 87.8333 594.533 85.64C594.533 84.8233 594.603 84.0067 594.743 83.19C594.883 82.3733 595.082 81.5567 595.338 80.74C595.548 80.0867 595.91 79.5267 596.423 79.06C596.96 78.57 597.555 78.325 598.208 78.325C598.442 78.325 598.57 78.3717 598.593 78.465C598.547 78.5583 598.488 78.5817 598.418 78.535C597.485 78.7683 596.785 79.725 596.318 81.405C596.155 82.0117 596.027 82.6417 595.933 83.295C595.863 83.9483 595.828 84.625 595.828 85.325C595.828 87.0283 596.108 87.88 596.668 87.88C597.438 87.88 598.033 87.04 598.453 85.36C598.733 84.1933 598.873 83.015 598.873 81.825C598.873 81.055 598.745 80.4717 598.488 80.075C598.232 79.655 598.103 79.48 598.103 79.55C598.103 79.3633 598.232 79.27 598.488 79.27C599.188 79.27 599.538 80.145 599.538 81.895C599.538 83.225 599.282 84.6133 598.768 86.06C598.115 87.9733 597.252 88.93 596.178 88.93ZM600.681 90.05C600.634 90.0033 600.611 89.9683 600.611 89.945C600.634 89.7817 600.669 89.49 600.716 89.07C600.786 88.65 600.867 88.0783 600.961 87.355C601.147 85.955 601.287 84.73 601.381 83.68C601.474 82.63 601.521 81.755 601.521 81.055C601.521 80.3317 601.462 79.7717 601.346 79.375C601.252 79.2817 601.066 79.235 600.786 79.235C600.646 79.235 600.436 79.27 600.156 79.34C599.876 79.41 599.677 79.445 599.561 79.445C599.444 79.445 599.386 79.41 599.386 79.34C599.386 79.27 599.689 79.0717 600.296 78.745C601.556 78.1383 602.139 77.835 602.046 77.835C602.489 77.835 602.711 78.5 602.711 79.83C602.711 80.4133 602.606 81.3 602.396 82.49C602.302 83.0733 602.232 83.5867 602.186 84.03C602.139 84.45 602.116 84.8117 602.116 85.115V85.22C603.492 82.91 604.892 81.0433 606.316 79.62C606.852 79.2 607.354 78.99 607.821 78.99C607.891 78.99 607.926 79.0133 607.926 79.06C607.692 79.5267 607.506 79.9 607.366 80.18C607.249 80.46 607.167 80.6583 607.121 80.775C606.934 81.2417 606.782 81.8833 606.666 82.7C606.642 83.0033 606.572 83.155 606.456 83.155C606.059 83.155 605.861 82.595 605.861 81.475C605.861 81.3817 605.861 81.2883 605.861 81.195C605.861 81.1017 605.872 81.0083 605.896 80.915C605.312 81.475 604.776 82.07 604.286 82.7C603.819 83.33 603.387 83.995 602.991 84.695C602.034 86.3983 601.602 87.8917 601.696 89.175C601.579 89.315 601.427 89.455 601.241 89.595C601.077 89.735 600.891 89.8867 600.681 90.05ZM611.256 89.77C610.392 89.77 609.961 88.6383 609.961 86.375C609.961 85.7683 609.996 84.8467 610.066 83.61C610.136 82.35 610.252 80.7867 610.416 78.92C608.782 79.13 607.826 79.235 607.546 79.235C607.336 79.235 607.231 79.1883 607.231 79.095C607.231 78.8383 607.429 78.605 607.826 78.395C608.152 78.2083 608.456 78.115 608.736 78.115C608.852 78.115 608.911 78.1267 608.911 78.15C608.887 78.1733 608.876 78.1967 608.876 78.22C608.876 78.2433 608.864 78.2783 608.841 78.325H608.946C609.226 78.325 609.727 78.29 610.451 78.22C610.521 78.1033 610.556 77.6133 610.556 76.75C610.556 74.4867 610.322 73.355 609.856 73.355C609.716 73.355 609.471 73.425 609.121 73.565C608.794 73.705 608.619 73.775 608.596 73.775L608.491 73.705C608.514 73.6817 608.537 73.6583 608.561 73.635C608.584 73.6117 608.619 73.5883 608.666 73.565L609.821 72.48C610.451 71.8967 610.824 71.5817 610.941 71.535C611.454 71.535 611.711 72.2817 611.711 73.775C611.711 74.2417 611.687 74.8367 611.641 75.56C611.594 76.26 611.524 77.0883 611.431 78.045C611.757 78.0217 612.049 78.01 612.306 78.01C612.586 77.9867 612.807 77.975 612.971 77.975C614.161 77.975 614.837 78.1267 615.001 78.43C614.907 78.57 614.802 78.64 614.686 78.64C614.546 78.64 614.324 78.6283 614.021 78.605C613.741 78.5817 613.531 78.57 613.391 78.57C613.204 78.57 612.936 78.5933 612.586 78.64C612.259 78.6633 611.862 78.6983 611.396 78.745C611.279 79.7717 611.186 80.7283 611.116 81.615C611.046 82.4783 611.011 83.2483 611.011 83.925C611.011 87.0983 611.407 88.685 612.201 88.685C612.691 88.685 613.192 88.265 613.706 87.425C613.799 87.425 613.846 87.5067 613.846 87.67C613.846 87.9967 613.496 88.4283 612.796 88.965C612.119 89.5017 611.606 89.77 611.256 89.77ZM620.663 100.515C620.103 100.515 619.462 100.258 618.738 99.745C618.015 99.2317 617.653 98.7183 617.653 98.205C617.653 98.0183 617.712 97.925 617.828 97.925C617.828 97.925 618.132 98.2167 618.738 98.8C619.345 99.4067 619.87 99.71 620.313 99.71C621.783 99.71 622.635 97.015 622.868 91.625C622.892 90.5983 622.938 89.1517 623.008 87.285C623.078 85.4183 623.16 83.1433 623.253 80.46C622.507 80.5533 621.9 80.6233 621.433 80.67C620.967 80.6933 620.652 80.705 620.488 80.705C620.232 80.705 620.103 80.6583 620.103 80.565C620.103 80.2617 620.29 80.0283 620.663 79.865C620.99 79.6783 621.293 79.585 621.573 79.585C621.737 79.585 621.83 79.6317 621.853 79.725C621.877 79.795 621.923 79.83 621.993 79.83C622.483 79.83 622.927 79.7483 623.323 79.585L623.708 73.46C623.802 71.6867 624.257 70.03 625.073 68.49C626.1 66.53 627.383 65.55 628.923 65.55C629.74 65.55 630.498 65.9467 631.198 66.74C631.922 67.5333 632.283 68.35 632.283 69.19C632.283 69.3533 632.248 69.4583 632.178 69.505C632.155 69.4817 632.132 69.4583 632.108 69.435C632.085 69.3883 632.05 69.33 632.003 69.26C631.163 67.3933 630.032 66.46 628.608 66.46C625.762 66.46 624.338 70.6367 624.338 78.99V79.76C624.595 79.7367 624.84 79.725 625.073 79.725C625.307 79.725 625.517 79.725 625.703 79.725C627.15 79.725 627.955 79.9 628.118 80.25C628.002 80.3667 627.908 80.4367 627.838 80.46C627.535 80.4133 627.22 80.3783 626.893 80.355C626.567 80.3083 626.205 80.285 625.808 80.285C625.598 80.285 625.365 80.285 625.108 80.285C624.852 80.285 624.572 80.2967 624.268 80.32C624.245 80.4833 624.222 80.95 624.198 81.72C624.198 82.4667 624.175 83.5283 624.128 84.905C624.105 86.4917 624.07 87.81 624.023 88.86C624 89.8867 623.977 90.6333 623.953 91.1C623.907 92.3367 623.825 93.4567 623.708 94.46C623.592 95.4867 623.452 96.3967 623.288 97.19C622.822 99.4067 621.947 100.515 620.663 100.515ZM629.879 88.93C628.783 88.93 628.234 87.8333 628.234 85.64C628.234 84.8233 628.304 84.0067 628.444 83.19C628.584 82.3733 628.783 81.5567 629.039 80.74C629.249 80.0867 629.611 79.5267 630.124 79.06C630.661 78.57 631.256 78.325 631.909 78.325C632.143 78.325 632.271 78.3717 632.294 78.465C632.248 78.5583 632.189 78.5817 632.119 78.535C631.186 78.7683 630.486 79.725 630.019 81.405C629.856 82.0117 629.728 82.6417 629.634 83.295C629.564 83.9483 629.529 84.625 629.529 85.325C629.529 87.0283 629.809 87.88 630.369 87.88C631.139 87.88 631.734 87.04 632.154 85.36C632.434 84.1933 632.574 83.015 632.574 81.825C632.574 81.055 632.446 80.4717 632.189 80.075C631.933 79.655 631.804 79.48 631.804 79.55C631.804 79.3633 631.933 79.27 632.189 79.27C632.889 79.27 633.239 80.145 633.239 81.895C633.239 83.225 632.983 84.6133 632.469 86.06C631.816 87.9733 630.953 88.93 629.879 88.93ZM634.382 90.05C634.335 90.0033 634.312 89.9683 634.312 89.945C634.335 89.7817 634.37 89.49 634.417 89.07C634.487 88.65 634.568 88.0783 634.662 87.355C634.848 85.955 634.988 84.73 635.082 83.68C635.175 82.63 635.222 81.755 635.222 81.055C635.222 80.3317 635.163 79.7717 635.047 79.375C634.953 79.2817 634.767 79.235 634.487 79.235C634.347 79.235 634.137 79.27 633.857 79.34C633.577 79.41 633.378 79.445 633.262 79.445C633.145 79.445 633.087 79.41 633.087 79.34C633.087 79.27 633.39 79.0717 633.997 78.745C635.257 78.1383 635.84 77.835 635.747 77.835C636.19 77.835 636.412 78.5 636.412 79.83C636.412 80.4133 636.307 81.3 636.097 82.49C636.003 83.0733 635.933 83.5867 635.887 84.03C635.84 84.45 635.817 84.8117 635.817 85.115V85.22C637.193 82.91 638.593 81.0433 640.017 79.62C640.553 79.2 641.055 78.99 641.522 78.99C641.592 78.99 641.627 79.0133 641.627 79.06C641.393 79.5267 641.207 79.9 641.067 80.18C640.95 80.46 640.868 80.6583 640.822 80.775C640.635 81.2417 640.483 81.8833 640.367 82.7C640.343 83.0033 640.273 83.155 640.157 83.155C639.76 83.155 639.562 82.595 639.562 81.475C639.562 81.3817 639.562 81.2883 639.562 81.195C639.562 81.1017 639.573 81.0083 639.597 80.915C639.013 81.475 638.477 82.07 637.987 82.7C637.52 83.33 637.088 83.995 636.692 84.695C635.735 86.3983 635.303 87.8917 635.397 89.175C635.28 89.315 635.128 89.455 634.942 89.595C634.778 89.735 634.592 89.8867 634.382 90.05ZM647.778 91.24C647.754 91.2167 647.743 91.1933 647.743 91.17C647.766 91.0533 647.801 90.855 647.848 90.575C647.894 90.295 647.941 89.9333 647.988 89.49C648.431 86.27 648.758 83.2717 648.968 80.495C649.178 77.7183 649.283 75.1633 649.283 72.83C649.283 70.52 648.828 69.365 647.918 69.365C647.848 69.365 647.731 69.3883 647.568 69.435C647.404 69.4817 647.288 69.505 647.218 69.505C647.101 69.505 647.043 69.4467 647.043 69.33C647.043 69.1667 647.451 68.945 648.268 68.665C649.038 68.3617 649.574 68.21 649.878 68.21C650.414 68.21 650.683 68.6883 650.683 69.645C650.683 70.345 650.659 71.115 650.613 71.955C650.566 72.795 650.496 73.6933 650.403 74.65L649.458 85.185L652.573 81.09C652.829 80.74 653.273 80.0167 653.903 78.92C654.229 78.3833 654.731 78.115 655.408 78.115C655.711 78.115 655.898 78.185 655.968 78.325C655.944 78.3483 655.909 78.3717 655.863 78.395C655.839 78.4183 655.793 78.4417 655.723 78.465C655.069 78.745 654.521 79.7717 654.078 81.545C653.704 82.945 653.518 84.17 653.518 85.22C653.518 86.97 653.938 87.845 654.778 87.845C655.058 87.845 655.384 87.6233 655.758 87.18L656.353 86.515C656.376 86.5383 656.388 86.5617 656.388 86.585C656.388 86.8883 656.108 87.3783 655.548 88.055C655.034 88.7083 654.626 89.035 654.323 89.035C653.203 89.035 652.643 87.88 652.643 85.57C652.643 83.54 652.689 82.35 652.783 82C652.619 82.1633 652.409 82.3967 652.153 82.7C651.919 82.98 651.616 83.3417 651.243 83.785C649.773 85.605 648.979 87.7983 648.863 90.365C648.349 90.9017 647.988 91.1933 647.778 91.24ZM658.488 88.93C657.391 88.93 656.843 87.8333 656.843 85.64C656.843 84.8233 656.913 84.0067 657.053 83.19C657.193 82.3733 657.391 81.5567 657.648 80.74C657.858 80.0867 658.219 79.5267 658.733 79.06C659.269 78.57 659.864 78.325 660.518 78.325C660.751 78.325 660.879 78.3717 660.903 78.465C660.856 78.5583 660.798 78.5817 660.728 78.535C659.794 78.7683 659.094 79.725 658.628 81.405C658.464 82.0117 658.336 82.6417 658.243 83.295C658.173 83.9483 658.138 84.625 658.138 85.325C658.138 87.0283 658.418 87.88 658.978 87.88C659.748 87.88 660.343 87.04 660.763 85.36C661.043 84.1933 661.183 83.015 661.183 81.825C661.183 81.055 661.054 80.4717 660.798 80.075C660.541 79.655 660.413 79.48 660.413 79.55C660.413 79.3633 660.541 79.27 660.798 79.27C661.498 79.27 661.848 80.145 661.848 81.895C661.848 83.225 661.591 84.6133 661.078 86.06C660.424 87.9733 659.561 88.93 658.488 88.93ZM663.69 89.035C663.504 89.035 663.41 88.79 663.41 88.3C663.41 87.9267 663.445 87.5533 663.515 87.18C663.819 85.5933 664.04 84.2283 664.18 83.085C664.344 81.9417 664.425 81.0317 664.425 80.355C664.425 79.725 664.332 79.3167 664.145 79.13C663.982 78.9433 663.585 78.85 662.955 78.85C662.815 78.85 662.629 78.885 662.395 78.955C662.139 79.0017 661.952 79.025 661.835 79.025C661.742 79.025 661.695 79.0017 661.695 78.955C661.695 78.885 662.01 78.6983 662.64 78.395C663.877 77.765 664.519 77.45 664.565 77.45C665.149 77.45 665.44 78.045 665.44 79.235C665.44 79.5617 665.37 80.2617 665.23 81.335C665.09 82.4083 664.892 83.8433 664.635 85.64L664.495 86.585L664.53 86.655C666.7 82.7817 668.1 80.845 668.73 80.845C669.08 80.845 669.232 82.35 669.185 85.36C669.349 85.15 669.664 84.7183 670.13 84.065C670.62 83.4117 671.274 82.5483 672.09 81.475L673.455 80.18C673.642 79.9933 673.782 79.9 673.875 79.9C673.922 79.9 673.945 79.935 673.945 80.005C673.945 80.075 673.91 80.18 673.84 80.32C673.28 81.5333 673 83.1667 673 85.22C673 86.97 673.42 87.845 674.26 87.845C674.587 87.845 675.1 87.4017 675.8 86.515V86.62C675.8 86.9 675.532 87.3783 674.995 88.055C674.482 88.7083 674.085 89.035 673.805 89.035C672.662 89.035 672.09 87.81 672.09 85.36C672.09 84.2867 672.16 83.3183 672.3 82.455C671.507 82.8283 670.562 83.9017 669.465 85.675L668.975 86.655C668.859 86.8417 668.73 86.935 668.59 86.935C668.264 86.935 668.077 86.41 668.03 85.36C668.03 85.1733 668.03 84.9167 668.03 84.59C668.03 84.2633 668.042 83.8667 668.065 83.4C668.042 83.0033 667.96 82.735 667.82 82.595C667.19 82.7817 666.024 84.6833 664.32 88.3C664.087 88.79 663.877 89.035 663.69 89.035ZM678.323 89.385C676.713 89.385 675.908 88.1717 675.908 85.745C675.908 85.3483 675.919 84.9633 675.943 84.59C675.989 84.1933 676.059 83.8083 676.153 83.435C675.873 83.2483 675.733 83.0967 675.733 82.98C675.733 82.77 675.978 82.5833 676.468 82.42C676.701 81.72 677.039 80.9267 677.483 80.04C678.113 78.8267 678.591 78.22 678.918 78.22C679.291 78.22 679.571 78.3833 679.758 78.71C679.898 78.3833 680.061 78.22 680.248 78.22C680.901 78.22 681.228 78.6167 681.228 79.41C681.228 80.0167 681.111 80.5533 680.878 81.02C681.041 81.2067 681.123 81.3817 681.123 81.545C681.123 81.5917 681.088 81.6383 681.018 81.685L679.058 82.315C678.684 82.4317 678.346 82.5833 678.043 82.77C677.763 82.9567 677.506 83.155 677.273 83.365C677.016 84.135 676.888 84.9633 676.888 85.85C676.888 87.81 677.494 88.79 678.708 88.79C680.318 88.79 681.834 87.4833 683.258 84.87C683.328 84.7533 683.386 84.695 683.433 84.695C683.503 84.695 683.538 84.765 683.538 84.905C683.538 85.0217 683.503 85.15 683.433 85.29C682.873 86.41 682.196 87.3317 681.403 88.055C680.399 88.9417 679.373 89.385 678.323 89.385ZM677.693 82.14C677.926 82.07 678.194 81.9883 678.498 81.895C678.824 81.7783 679.174 81.6383 679.548 81.475C679.664 81.3817 679.816 81.09 680.003 80.6C680.166 80.18 680.248 79.8417 680.248 79.585C680.248 79.2817 680.131 79.13 679.898 79.13C679.641 79.13 679.221 79.5617 678.638 80.425C678.031 81.265 677.716 81.8367 677.693 82.14Z" fill="#292929"/>
<line x1="316" y1="0.5" x2="946" y2="0.5" stroke="#292929"/>
</svg>
