<svg width="144" height="88" viewBox="0 0 144 88" fill="none" xmlns="http://www.w3.org/2000/svg">
<path d="M3.57563 9.32C2.85563 9.32 2.49563 9.25333 2.49563 9.12C2.49563 8.8 2.78896 8.46666 3.37563 8.12C3.96229 7.77333 4.44229 7.6 4.81563 7.6C5.50896 7.6 6.36229 7.62667 7.37563 7.68C8.38896 7.70667 9.57563 7.77333 10.9356 7.88C12.3223 7.98667 13.5223 8.06667 14.5356 8.12C15.5756 8.14667 16.429 8.16 17.0956 8.16C18.8556 8.16 20.4556 8.04 21.8956 7.8C21.789 8.14667 21.4423 8.4 20.8556 8.56C18.989 9.06667 15.669 9.32 10.8956 9.32C10.629 9.32 10.2823 9.32 9.85563 9.32C9.42896 9.32 8.93563 9.30667 8.37563 9.28C7.84229 9.25333 7.36229 9.24 6.93563 9.24C6.53563 9.24 6.18896 9.24 5.89562 9.24C5.62896 9.24 5.24229 9.25333 4.73563 9.28C4.22896 9.30667 3.84229 9.32 3.57563 9.32ZM8.05563 31.28C4.34896 31.28 2.49563 29.1733 2.49563 24.96C2.49563 23.4133 2.73563 21.5867 3.21563 19.48C3.05563 19.48 2.80229 19.4667 2.45563 19.44C2.13563 19.4133 1.89563 19.4 1.73563 19.4C1.25563 19.4 1.01563 19.2933 1.01563 19.08C1.01563 18.76 1.34896 18.4267 2.01563 18.08C2.30896 17.9467 2.57563 17.84 2.81563 17.76C3.08229 17.6533 3.30896 17.5867 3.49563 17.56C3.68229 16.3867 3.81563 15.2267 3.89563 14.08C3.97563 12.9333 4.01563 11.8267 4.01563 10.76C4.62896 9.82667 5.16229 9.36 5.61563 9.36C5.90896 9.36 6.05563 9.61333 6.05563 10.12C6.05563 10.4667 5.94896 11.28 5.73563 12.56C5.52229 13.8133 5.20229 15.5333 4.77563 17.72L12.7756 17.96C13.0156 17.96 13.309 17.96 13.6556 17.96C14.029 17.9333 14.469 17.9067 14.9756 17.88C15.4823 17.8533 15.909 17.84 16.2556 17.84C16.629 17.8133 16.9356 17.8 17.1756 17.8C17.229 17.8 17.2556 17.8133 17.2556 17.84C17.229 17.8667 17.2023 17.8933 17.1756 17.92C17.149 17.9467 17.109 17.9733 17.0556 18C16.2556 18.3733 15.4423 18.64 14.6156 18.8C12.6156 19.2 9.28229 19.4 4.61563 19.4C4.48229 20.0933 4.37563 20.76 4.29563 21.4C4.21563 22.0133 4.17563 22.6133 4.17563 23.2C4.17563 27.8133 6.49563 30.12 11.1356 30.12C13.829 30.12 16.589 29.4 19.4156 27.96L21.0556 27C21.8023 26.5733 22.2823 26.36 22.4956 26.36C22.6556 26.36 22.7356 26.4533 22.7356 26.64C22.7356 27.4133 22.1223 28.0533 20.8956 28.56C19.1623 29.3333 17.069 29.9733 14.6156 30.48C13.389 30.7467 12.2156 30.9467 11.0956 31.08C10.0023 31.2133 8.98896 31.28 8.05563 31.28ZM50.4459 30C48.5793 30 47.0193 24.56 45.7659 13.68C45.0193 15.3333 44.2593 16.8933 43.4859 18.36C42.7126 19.8267 41.9393 21.1867 41.1659 22.44C38.5793 26.7067 36.4993 28.84 34.9259 28.84C33.1126 28.84 31.6459 26.4533 30.5259 21.68C30.0993 19.8667 29.7793 18.1333 29.5659 16.48C29.3526 14.8267 29.2459 13.2667 29.2459 11.8C29.2459 9.56 29.6326 8.37333 30.4059 8.24L30.6059 11.52C30.8193 14.88 31.2193 17.8 31.8059 20.28C32.8459 24.5467 34.2859 26.68 36.1259 26.68C37.4059 26.68 39.2326 24.5733 41.6059 20.36C43.4993 17 44.8193 14.2 45.5659 11.96L45.2859 9.36C45.2859 8.05333 45.6993 7.4 46.5259 7.4C47.2193 7.4 47.5659 8.06667 47.5659 9.4C47.5659 10.1733 47.4459 10.7067 47.2059 11V11.68C47.2059 12.9067 47.2593 14.1733 47.3659 15.48C47.4726 16.7867 47.6326 18.1333 47.8459 19.52C47.9793 20.3467 48.1393 21.16 48.3259 21.96C48.5126 22.76 48.7259 23.5467 48.9659 24.32C49.7659 26.8533 50.6326 28.12 51.5659 28.12C51.6993 28.12 51.8726 28.0667 52.0859 27.96C52.3259 27.8267 52.4726 27.76 52.5259 27.76L52.6459 27.88C52.6459 28.0133 52.2459 28.5467 51.4459 29.48C51.1793 29.8267 50.8459 30 50.4459 30ZM24.0059 30.96C23.3659 30.96 23.0459 30.0667 23.0459 28.28C23.0459 24.92 24.3126 19.44 26.8459 11.84C26.9526 11.5467 27.0993 11.12 27.2859 10.56C27.4993 10 27.7526 9.32 28.0459 8.52C28.3126 7.77333 28.6593 7.4 29.0859 7.4C29.2993 7.4 29.4193 7.53333 29.4459 7.8C28.6193 9.90667 27.9126 11.7333 27.3259 13.28C26.7393 14.8 26.2859 16.04 25.9659 17C24.7393 20.7067 24.1259 23.88 24.1259 26.52C24.1259 26.92 24.2326 27.5867 24.4459 28.52C24.5526 28.9467 24.6326 29.3067 24.6859 29.6C24.7393 29.8933 24.7659 30.1067 24.7659 30.24C24.7659 30.72 24.5126 30.96 24.0059 30.96ZM56.3491 9.32C55.6291 9.32 55.2691 9.25333 55.2691 9.12C55.2691 8.8 55.5624 8.46666 56.1491 8.12C56.7357 7.77333 57.2157 7.6 57.5891 7.6C58.2824 7.6 59.1357 7.62667 60.1491 7.68C61.1624 7.70667 62.3491 7.77333 63.7091 7.88C65.0957 7.98667 66.2957 8.06667 67.3091 8.12C68.3491 8.14667 69.2024 8.16 69.8691 8.16C71.6291 8.16 73.2291 8.04 74.6691 7.8C74.5624 8.14667 74.2157 8.4 73.6291 8.56C71.7624 9.06667 68.4424 9.32 63.6691 9.32C63.4024 9.32 63.0557 9.32 62.6291 9.32C62.2024 9.32 61.7091 9.30667 61.1491 9.28C60.6157 9.25333 60.1357 9.24 59.7091 9.24C59.3091 9.24 58.9624 9.24 58.6691 9.24C58.4024 9.24 58.0157 9.25333 57.5091 9.28C57.0024 9.30667 56.6157 9.32 56.3491 9.32ZM60.8291 31.28C57.1224 31.28 55.2691 29.1733 55.2691 24.96C55.2691 23.4133 55.5091 21.5867 55.9891 19.48C55.8291 19.48 55.5757 19.4667 55.2291 19.44C54.9091 19.4133 54.6691 19.4 54.5091 19.4C54.0291 19.4 53.7891 19.2933 53.7891 19.08C53.7891 18.76 54.1224 18.4267 54.7891 18.08C55.0824 17.9467 55.3491 17.84 55.5891 17.76C55.8557 17.6533 56.0824 17.5867 56.2691 17.56C56.4557 16.3867 56.5891 15.2267 56.6691 14.08C56.7491 12.9333 56.7891 11.8267 56.7891 10.76C57.4024 9.82667 57.9357 9.36 58.3891 9.36C58.6824 9.36 58.8291 9.61333 58.8291 10.12C58.8291 10.4667 58.7224 11.28 58.5091 12.56C58.2957 13.8133 57.9757 15.5333 57.5491 17.72L65.5491 17.96C65.7891 17.96 66.0824 17.96 66.4291 17.96C66.8024 17.9333 67.2424 17.9067 67.7491 17.88C68.2557 17.8533 68.6824 17.84 69.0291 17.84C69.4024 17.8133 69.7091 17.8 69.9491 17.8C70.0024 17.8 70.0291 17.8133 70.0291 17.84C70.0024 17.8667 69.9757 17.8933 69.9491 17.92C69.9224 17.9467 69.8824 17.9733 69.8291 18C69.0291 18.3733 68.2157 18.64 67.3891 18.8C65.3891 19.2 62.0557 19.4 57.3891 19.4C57.2557 20.0933 57.1491 20.76 57.0691 21.4C56.9891 22.0133 56.9491 22.6133 56.9491 23.2C56.9491 27.8133 59.2691 30.12 63.9091 30.12C66.6024 30.12 69.3624 29.4 72.1891 27.96L73.8291 27C74.5757 26.5733 75.0557 26.36 75.2691 26.36C75.4291 26.36 75.5091 26.4533 75.5091 26.64C75.5091 27.4133 74.8957 28.0533 73.6691 28.56C71.9357 29.3333 69.8424 29.9733 67.3891 30.48C66.1624 30.7467 64.9891 30.9467 63.8691 31.08C62.7757 31.2133 61.7624 31.28 60.8291 31.28ZM89.4194 31.52C87.1794 31.52 84.9927 28.8933 82.8594 23.64C82.6994 23.08 82.4194 22.28 82.0194 21.24C81.886 20.9733 81.6594 20.7733 81.3394 20.64C81.0994 20.5067 80.9794 20.2 80.9794 19.72C80.9794 18.5733 81.2327 18 81.7394 18C81.8994 18 82.0327 18.0533 82.1394 18.16C82.246 18.4533 82.3794 18.8133 82.5394 19.24C82.6994 19.6667 82.886 20.1733 83.0994 20.76V20.68C83.0994 20.5467 83.1927 20.4667 83.3794 20.44C84.046 20.3333 84.6594 20.2267 85.2194 20.12C85.7794 20.0133 86.2727 19.8933 86.6994 19.76C88.0594 19.36 89.3394 18.7867 90.5394 18.04C92.2727 17 93.1394 16 93.1394 15.04C93.1394 13.8933 92.2727 12.8 90.5394 11.76C88.8594 10.6933 86.926 10 84.7394 9.68C83.2994 9.44 81.2327 9.32 78.5394 9.32C78.1127 9.32 77.6994 9.34667 77.2994 9.4C76.926 9.42667 76.5794 9.46667 76.2594 9.52C76.3394 8.85333 76.6327 8.42667 77.1394 8.24C77.2727 8.18667 77.4727 8.14667 77.7394 8.12C78.0327 8.09333 78.3927 8.06667 78.8194 8.04C79.1127 8.01333 79.4327 8 79.7794 8C80.1527 8 80.5527 8 80.9794 8H81.6594C85.606 8 88.9127 8.76 91.5794 10.28C93.5794 11.4267 94.5794 12.7333 94.5794 14.2C94.5794 15.72 93.0994 17.28 90.1394 18.88C87.4727 20.32 85.3127 21.04 83.6594 21.04C83.366 21.04 83.1794 20.9467 83.0994 20.76C85.3927 26.6 87.7127 29.52 90.0594 29.52C91.606 29.52 92.7394 28.36 93.4594 26.04C93.9394 24.4667 94.1794 22.6667 94.1794 20.64C94.1794 19.6533 94.1394 19.0667 94.0594 18.88C94.1127 18.8 94.166 18.76 94.2194 18.76C94.406 18.76 94.566 18.96 94.6994 19.36C94.8594 19.76 94.9394 20.08 94.9394 20.32C94.9394 22.6133 94.5394 24.88 93.7394 27.12C92.6994 30.0533 91.2594 31.52 89.4194 31.52ZM78.8594 31.8C77.446 31.8 76.8194 30.4667 76.9794 27.8L77.0194 27.2C77.0994 25.8667 77.246 24.4533 77.4594 22.96C77.6994 21.4667 77.9927 19.8933 78.3394 18.24C79.0594 14.9067 79.4194 12.64 79.4194 11.44C79.4194 11.3067 79.4194 11.1733 79.4194 11.04C79.4194 10.9067 79.406 10.7733 79.3794 10.64C79.7794 9.94666 80.1527 9.6 80.4994 9.6C80.7927 9.6 80.9394 9.94666 80.9394 10.64V10.88C80.9394 11.2267 80.8594 11.84 80.6994 12.72C80.566 13.5733 80.3527 14.6933 80.0594 16.08C79.526 18.56 79.126 20.6667 78.8594 22.4C78.5927 24.1333 78.4594 25.5067 78.4594 26.52C78.4594 28.76 78.926 30.2667 79.8594 31.04C79.6727 31.5467 79.3394 31.8 78.8594 31.8ZM107.945 32.24C104.931 32.24 102.398 31.2667 100.345 29.32C98.2647 27.3467 97.2247 24.8933 97.2247 21.96C97.2247 17.6667 99.038 14.0667 102.665 11.16C106.051 8.41333 109.931 7.04 114.305 7.04C117.131 7.04 118.838 8.04 119.425 10.04C119.451 10.12 119.465 10.2 119.465 10.28C119.491 10.36 119.505 10.44 119.505 10.52C119.505 10.76 119.438 10.9067 119.305 10.96L118.225 9.64C117.345 8.84 116.051 8.44 114.345 8.44C110.531 8.44 106.998 9.92 103.745 12.88C100.385 15.92 98.7047 19.32 98.7047 23.08C98.7047 25.88 99.7047 28 101.705 29.44C103.411 30.6667 105.731 31.28 108.665 31.28C110.771 31.28 112.705 30.8933 114.465 30.12C116.571 29.16 117.811 27.7733 118.185 25.96C118.345 25.1067 118.425 23.5067 118.425 21.16C118.425 20.8933 118.571 20.6267 118.865 20.36C119.185 20.0933 119.478 19.96 119.745 19.96C119.985 19.96 120.158 20.0533 120.265 20.24C120.078 20.9867 119.931 21.96 119.825 23.16C119.745 24.36 119.705 25.7867 119.705 27.44C119.705 27.7333 119.718 28.16 119.745 28.72C119.798 29.28 119.825 29.7067 119.825 30C119.825 30.4 119.691 30.6 119.425 30.6C118.838 30.6 118.398 30 118.105 28.8C115.331 31.0933 111.945 32.24 107.945 32.24ZM124.474 9.32C123.754 9.32 123.394 9.25333 123.394 9.12C123.394 8.8 123.687 8.46666 124.274 8.12C124.861 7.77333 125.341 7.6 125.714 7.6C126.407 7.6 127.261 7.62667 128.274 7.68C129.287 7.70667 130.474 7.77333 131.834 7.88C133.221 7.98667 134.421 8.06667 135.434 8.12C136.474 8.14667 137.327 8.16 137.994 8.16C139.754 8.16 141.354 8.04 142.794 7.8C142.687 8.14667 142.341 8.4 141.754 8.56C139.887 9.06667 136.567 9.32 131.794 9.32C131.527 9.32 131.181 9.32 130.754 9.32C130.327 9.32 129.834 9.30667 129.274 9.28C128.741 9.25333 128.261 9.24 127.834 9.24C127.434 9.24 127.087 9.24 126.794 9.24C126.527 9.24 126.141 9.25333 125.634 9.28C125.127 9.30667 124.741 9.32 124.474 9.32ZM128.954 31.28C125.247 31.28 123.394 29.1733 123.394 24.96C123.394 23.4133 123.634 21.5867 124.114 19.48C123.954 19.48 123.701 19.4667 123.354 19.44C123.034 19.4133 122.794 19.4 122.634 19.4C122.154 19.4 121.914 19.2933 121.914 19.08C121.914 18.76 122.247 18.4267 122.914 18.08C123.207 17.9467 123.474 17.84 123.714 17.76C123.981 17.6533 124.207 17.5867 124.394 17.56C124.581 16.3867 124.714 15.2267 124.794 14.08C124.874 12.9333 124.914 11.8267 124.914 10.76C125.527 9.82667 126.061 9.36 126.514 9.36C126.807 9.36 126.954 9.61333 126.954 10.12C126.954 10.4667 126.847 11.28 126.634 12.56C126.421 13.8133 126.101 15.5333 125.674 17.72L133.674 17.96C133.914 17.96 134.207 17.96 134.554 17.96C134.927 17.9333 135.367 17.9067 135.874 17.88C136.381 17.8533 136.807 17.84 137.154 17.84C137.527 17.8133 137.834 17.8 138.074 17.8C138.127 17.8 138.154 17.8133 138.154 17.84C138.127 17.8667 138.101 17.8933 138.074 17.92C138.047 17.9467 138.007 17.9733 137.954 18C137.154 18.3733 136.341 18.64 135.514 18.8C133.514 19.2 130.181 19.4 125.514 19.4C125.381 20.0933 125.274 20.76 125.194 21.4C125.114 22.0133 125.074 22.6133 125.074 23.2C125.074 27.8133 127.394 30.12 132.034 30.12C134.727 30.12 137.487 29.4 140.314 27.96L141.954 27C142.701 26.5733 143.181 26.36 143.394 26.36C143.554 26.36 143.634 26.4533 143.634 26.64C143.634 27.4133 143.021 28.0533 141.794 28.56C140.061 29.3333 137.967 29.9733 135.514 30.48C134.287 30.7467 133.114 30.9467 131.994 31.08C130.901 31.2133 129.887 31.28 128.954 31.28Z" fill="#292929"/>
<path d="M10.9249 73.396C9.38892 73.396 8.62092 72.232 8.62092 69.904C8.62092 68.752 8.78892 67.672 9.12492 66.664C9.24492 66.352 9.37692 66.016 9.52092 65.656C9.68892 65.272 9.89292 64.852 10.1329 64.396C10.7329 63.22 11.1769 62.632 11.4649 62.632C11.8729 62.632 12.1609 62.788 12.3289 63.1C12.3769 62.956 12.4849 62.884 12.6529 62.884C12.9889 62.884 13.3129 63.04 13.6249 63.352C13.9369 63.664 14.0929 63.988 14.0929 64.324C14.0929 64.684 13.9489 65.044 13.6609 65.404C13.3729 65.74 13.0489 65.908 12.6889 65.908C12.6409 65.908 12.5929 65.884 12.5449 65.836C13.0489 65.044 13.3009 64.456 13.3009 64.072C13.3009 63.64 13.1449 63.424 12.8329 63.424C12.0169 63.424 11.1889 64.564 10.3489 66.844C9.79692 68.38 9.52092 69.616 9.52092 70.552C9.52092 72.064 10.1089 72.82 11.2849 72.82C12.6289 72.82 13.9849 71.92 15.3529 70.12C15.8089 69.52 16.0609 69.208 16.1089 69.184C16.1809 69.184 16.2169 69.232 16.2169 69.328C16.2169 69.352 16.1929 69.436 16.1449 69.58C14.8249 72.124 13.0849 73.396 10.9249 73.396ZM17.4899 72.928C16.3619 72.928 15.7979 71.8 15.7979 69.544C15.7979 68.704 15.8699 67.864 16.0139 67.024C16.1579 66.184 16.3619 65.344 16.6259 64.504C16.8419 63.832 17.2139 63.256 17.7419 62.776C18.2939 62.272 18.9059 62.02 19.5779 62.02C19.8179 62.02 19.9499 62.068 19.9739 62.164C19.9259 62.26 19.8659 62.284 19.7939 62.236C18.8339 62.476 18.1139 63.46 17.6339 65.188C17.4659 65.812 17.3339 66.46 17.2379 67.132C17.1659 67.804 17.1299 68.5 17.1299 69.22C17.1299 70.972 17.4179 71.848 17.9939 71.848C18.7859 71.848 19.3979 70.984 19.8299 69.256C20.1179 68.056 20.2619 66.844 20.2619 65.62C20.2619 64.828 20.1299 64.228 19.8659 63.82C19.6019 63.388 19.4699 63.208 19.4699 63.28C19.4699 63.088 19.6019 62.992 19.8659 62.992C20.5859 62.992 20.9459 63.892 20.9459 65.692C20.9459 67.06 20.6819 68.488 20.1539 69.976C19.4819 71.944 18.5939 72.928 17.4899 72.928ZM22.8409 73.036C22.6489 73.036 22.5529 72.784 22.5529 72.28C22.5529 71.896 22.5889 71.512 22.6609 71.128C22.9729 69.496 23.2009 68.092 23.3449 66.916C23.5129 65.74 23.5969 64.804 23.5969 64.108C23.5969 63.46 23.5009 63.04 23.3089 62.848C23.1409 62.656 22.7329 62.56 22.0849 62.56C21.9409 62.56 21.7489 62.596 21.5089 62.668C21.2449 62.716 21.0529 62.74 20.9329 62.74C20.8369 62.74 20.7889 62.716 20.7889 62.668C20.7889 62.596 21.1129 62.404 21.7609 62.092C23.0329 61.444 23.6929 61.12 23.7409 61.12C24.3409 61.12 24.6409 61.732 24.6409 62.956C24.6409 63.292 24.5689 64.012 24.4249 65.116C24.2809 66.22 24.0769 67.696 23.8129 69.544L23.6689 70.516L23.7049 70.588C25.9369 66.604 27.3769 64.612 28.0249 64.612C28.3849 64.612 28.5409 66.16 28.4929 69.256C28.6609 69.04 28.9849 68.596 29.4649 67.924C29.9689 67.252 30.6409 66.364 31.4809 65.26L32.8849 63.928C33.0769 63.736 33.2209 63.64 33.3169 63.64C33.3649 63.64 33.3889 63.676 33.3889 63.748C33.3889 63.82 33.3529 63.928 33.2809 64.072C32.7049 65.32 32.4169 67 32.4169 69.112C32.4169 70.912 32.8489 71.812 33.7129 71.812C34.0489 71.812 34.5769 71.356 35.2969 70.444V70.552C35.2969 70.84 35.0209 71.332 34.4689 72.028C33.9409 72.7 33.5329 73.036 33.2449 73.036C32.0689 73.036 31.4809 71.776 31.4809 69.256C31.4809 68.152 31.5529 67.156 31.6969 66.268C30.8809 66.652 29.9089 67.756 28.7809 69.58L28.2769 70.588C28.1569 70.78 28.0249 70.876 27.8809 70.876C27.5449 70.876 27.3529 70.336 27.3049 69.256C27.3049 69.064 27.3049 68.8 27.3049 68.464C27.3049 68.128 27.3169 67.72 27.3409 67.24C27.3169 66.832 27.2329 66.556 27.0889 66.412C26.4409 66.604 25.2409 68.56 23.4889 72.28C23.2489 72.784 23.0329 73.036 22.8409 73.036ZM34.9755 84.844C34.3995 84.844 33.7395 84.58 32.9955 84.052C32.2515 83.524 31.8795 82.996 31.8795 82.468C31.8795 82.276 31.9395 82.18 32.0595 82.18C32.0595 82.18 32.3715 82.48 32.9955 83.08C33.6195 83.704 34.1595 84.016 34.6155 84.016C36.1275 84.016 37.0035 81.244 37.2435 75.7C37.2675 74.644 37.3155 73.156 37.3875 71.236C37.4595 69.316 37.5435 66.976 37.6395 64.216C36.8715 64.312 36.2475 64.384 35.7675 64.432C35.2875 64.456 34.9635 64.468 34.7955 64.468C34.5315 64.468 34.3995 64.42 34.3995 64.324C34.3995 64.012 34.5915 63.772 34.9755 63.604C35.3115 63.412 35.6235 63.316 35.9115 63.316C36.0795 63.316 36.1755 63.364 36.1995 63.46C36.2235 63.532 36.2715 63.568 36.3435 63.568C36.8475 63.568 37.3035 63.484 37.7115 63.316L38.1075 57.016C38.2035 55.192 38.6715 53.488 39.5115 51.904C40.5675 49.888 41.8875 48.88 43.4715 48.88C44.3115 48.88 45.0915 49.288 45.8115 50.104C46.5555 50.92 46.9275 51.76 46.9275 52.624C46.9275 52.792 46.8915 52.9 46.8195 52.948C46.7955 52.924 46.7715 52.9 46.7475 52.876C46.7235 52.828 46.6875 52.768 46.6395 52.696C45.7755 50.776 44.6115 49.816 43.1475 49.816C40.2195 49.816 38.7555 54.112 38.7555 62.704V63.496C39.0195 63.472 39.2715 63.46 39.5115 63.46C39.7515 63.46 39.9675 63.46 40.1595 63.46C41.6475 63.46 42.4755 63.64 42.6435 64C42.5235 64.12 42.4275 64.192 42.3555 64.216C42.0435 64.168 41.7195 64.132 41.3835 64.108C41.0475 64.06 40.6755 64.036 40.2675 64.036C40.0515 64.036 39.8115 64.036 39.5475 64.036C39.2835 64.036 38.9955 64.048 38.6835 64.072C38.6595 64.24 38.6355 64.72 38.6115 65.512C38.6115 66.28 38.5875 67.372 38.5395 68.788C38.5155 70.42 38.4795 71.776 38.4315 72.856C38.4075 73.912 38.3835 74.68 38.3595 75.16C38.3115 76.432 38.2275 77.584 38.1075 78.616C37.9875 79.672 37.8435 80.608 37.6755 81.424C37.1955 83.704 36.2955 84.844 34.9755 84.844ZM44.4547 72.928C43.3267 72.928 42.7627 71.8 42.7627 69.544C42.7627 68.704 42.8347 67.864 42.9787 67.024C43.1227 66.184 43.3267 65.344 43.5907 64.504C43.8067 63.832 44.1787 63.256 44.7067 62.776C45.2587 62.272 45.8707 62.02 46.5427 62.02C46.7827 62.02 46.9147 62.068 46.9387 62.164C46.8907 62.26 46.8307 62.284 46.7587 62.236C45.7987 62.476 45.0787 63.46 44.5987 65.188C44.4307 65.812 44.2987 66.46 44.2027 67.132C44.1307 67.804 44.0947 68.5 44.0947 69.22C44.0947 70.972 44.3827 71.848 44.9587 71.848C45.7507 71.848 46.3627 70.984 46.7947 69.256C47.0827 68.056 47.2267 66.844 47.2267 65.62C47.2267 64.828 47.0947 64.228 46.8307 63.82C46.5667 63.388 46.4347 63.208 46.4347 63.28C46.4347 63.088 46.5667 62.992 46.8307 62.992C47.5507 62.992 47.9107 63.892 47.9107 65.692C47.9107 67.06 47.6467 68.488 47.1187 69.976C46.4467 71.944 45.5587 72.928 44.4547 72.928ZM49.0858 74.08C49.0378 74.032 49.0138 73.996 49.0138 73.972C49.0378 73.804 49.0738 73.504 49.1218 73.072C49.1938 72.64 49.2778 72.052 49.3738 71.308C49.5658 69.868 49.7098 68.608 49.8058 67.528C49.9018 66.448 49.9498 65.548 49.9498 64.828C49.9498 64.084 49.8898 63.508 49.7698 63.1C49.6738 63.004 49.4818 62.956 49.1938 62.956C49.0498 62.956 48.8338 62.992 48.5458 63.064C48.2578 63.136 48.0538 63.172 47.9338 63.172C47.8138 63.172 47.7538 63.136 47.7538 63.064C47.7538 62.992 48.0658 62.788 48.6898 62.452C49.9858 61.828 50.5858 61.516 50.4898 61.516C50.9458 61.516 51.1738 62.2 51.1738 63.568C51.1738 64.168 51.0658 65.08 50.8498 66.304C50.7538 66.904 50.6818 67.432 50.6338 67.888C50.5858 68.32 50.5618 68.692 50.5618 69.004V69.112C51.9778 66.736 53.4178 64.816 54.8818 63.352C55.4338 62.92 55.9498 62.704 56.4298 62.704C56.5018 62.704 56.5378 62.728 56.5378 62.776C56.2978 63.256 56.1058 63.64 55.9618 63.928C55.8418 64.216 55.7578 64.42 55.7098 64.54C55.5178 65.02 55.3618 65.68 55.2418 66.52C55.2178 66.832 55.1458 66.988 55.0258 66.988C54.6178 66.988 54.4138 66.412 54.4138 65.26C54.4138 65.164 54.4138 65.068 54.4138 64.972C54.4138 64.876 54.4258 64.78 54.4498 64.684C53.8498 65.26 53.2978 65.872 52.7938 66.52C52.3138 67.168 51.8698 67.852 51.4618 68.572C50.4778 70.324 50.0338 71.86 50.1298 73.18C50.0098 73.324 49.8538 73.468 49.6618 73.612C49.4938 73.756 49.3018 73.912 49.0858 74.08ZM59.9631 73.792C59.0751 73.792 58.6311 72.628 58.6311 70.3C58.6311 69.676 58.6671 68.728 58.7391 67.456C58.8111 66.16 58.9311 64.552 59.0991 62.632C57.4191 62.848 56.4351 62.956 56.1471 62.956C55.9311 62.956 55.8231 62.908 55.8231 62.812C55.8231 62.548 56.0271 62.308 56.4351 62.092C56.7711 61.9 57.0831 61.804 57.3711 61.804C57.4911 61.804 57.5511 61.816 57.5511 61.84C57.5271 61.864 57.5151 61.888 57.5151 61.912C57.5151 61.936 57.5031 61.972 57.4791 62.02H57.5871C57.8751 62.02 58.3911 61.984 59.1351 61.912C59.2071 61.792 59.2431 61.288 59.2431 60.4C59.2431 58.072 59.0031 56.908 58.5231 56.908C58.3791 56.908 58.1271 56.98 57.7671 57.124C57.4311 57.268 57.2511 57.34 57.2271 57.34L57.1191 57.268C57.1431 57.244 57.1671 57.22 57.1911 57.196C57.2151 57.172 57.2511 57.148 57.2991 57.124L58.4871 56.008C59.1351 55.408 59.5191 55.084 59.6391 55.036C60.1671 55.036 60.4311 55.804 60.4311 57.34C60.4311 57.82 60.4071 58.432 60.3591 59.176C60.3111 59.896 60.2391 60.748 60.1431 61.732C60.4791 61.708 60.7791 61.696 61.0431 61.696C61.3311 61.672 61.5591 61.66 61.7271 61.66C62.9511 61.66 63.6471 61.816 63.8151 62.128C63.7191 62.272 63.6111 62.344 63.4911 62.344C63.3471 62.344 63.1191 62.332 62.8071 62.308C62.5191 62.284 62.3031 62.272 62.1591 62.272C61.9671 62.272 61.6911 62.296 61.3311 62.344C60.9951 62.368 60.5871 62.404 60.1071 62.452C59.9871 63.508 59.8911 64.492 59.8191 65.404C59.7471 66.292 59.7111 67.084 59.7111 67.78C59.7111 71.044 60.1191 72.676 60.9351 72.676C61.4391 72.676 61.9551 72.244 62.4831 71.38C62.5791 71.38 62.6271 71.464 62.6271 71.632C62.6271 71.968 62.2671 72.412 61.5471 72.964C60.8511 73.516 60.3231 73.792 59.9631 73.792ZM69.6395 84.844C69.0635 84.844 68.4035 84.58 67.6595 84.052C66.9155 83.524 66.5435 82.996 66.5435 82.468C66.5435 82.276 66.6035 82.18 66.7235 82.18C66.7235 82.18 67.0355 82.48 67.6595 83.08C68.2835 83.704 68.8235 84.016 69.2795 84.016C70.7915 84.016 71.6675 81.244 71.9075 75.7C71.9315 74.644 71.9795 73.156 72.0515 71.236C72.1235 69.316 72.2075 66.976 72.3035 64.216C71.5355 64.312 70.9115 64.384 70.4315 64.432C69.9515 64.456 69.6275 64.468 69.4595 64.468C69.1955 64.468 69.0635 64.42 69.0635 64.324C69.0635 64.012 69.2555 63.772 69.6395 63.604C69.9755 63.412 70.2875 63.316 70.5755 63.316C70.7435 63.316 70.8395 63.364 70.8635 63.46C70.8875 63.532 70.9355 63.568 71.0075 63.568C71.5115 63.568 71.9675 63.484 72.3755 63.316L72.7715 57.016C72.8675 55.192 73.3355 53.488 74.1755 51.904C75.2315 49.888 76.5515 48.88 78.1355 48.88C78.9755 48.88 79.7555 49.288 80.4755 50.104C81.2195 50.92 81.5915 51.76 81.5915 52.624C81.5915 52.792 81.5555 52.9 81.4835 52.948C81.4595 52.924 81.4355 52.9 81.4115 52.876C81.3875 52.828 81.3515 52.768 81.3035 52.696C80.4395 50.776 79.2755 49.816 77.8115 49.816C74.8835 49.816 73.4195 54.112 73.4195 62.704V63.496C73.6835 63.472 73.9355 63.46 74.1755 63.46C74.4155 63.46 74.6315 63.46 74.8235 63.46C76.3115 63.46 77.1395 63.64 77.3075 64C77.1875 64.12 77.0915 64.192 77.0195 64.216C76.7075 64.168 76.3835 64.132 76.0475 64.108C75.7115 64.06 75.3395 64.036 74.9315 64.036C74.7155 64.036 74.4755 64.036 74.2115 64.036C73.9475 64.036 73.6595 64.048 73.3475 64.072C73.3235 64.24 73.2995 64.72 73.2755 65.512C73.2755 66.28 73.2515 67.372 73.2035 68.788C73.1795 70.42 73.1435 71.776 73.0955 72.856C73.0715 73.912 73.0475 74.68 73.0235 75.16C72.9755 76.432 72.8915 77.584 72.7715 78.616C72.6515 79.672 72.5075 80.608 72.3395 81.424C71.8595 83.704 70.9595 84.844 69.6395 84.844ZM79.1188 72.928C77.9908 72.928 77.4268 71.8 77.4268 69.544C77.4268 68.704 77.4988 67.864 77.6428 67.024C77.7868 66.184 77.9908 65.344 78.2548 64.504C78.4708 63.832 78.8428 63.256 79.3708 62.776C79.9228 62.272 80.5348 62.02 81.2068 62.02C81.4468 62.02 81.5788 62.068 81.6028 62.164C81.5548 62.26 81.4948 62.284 81.4228 62.236C80.4628 62.476 79.7428 63.46 79.2628 65.188C79.0948 65.812 78.9628 66.46 78.8668 67.132C78.7948 67.804 78.7588 68.5 78.7588 69.22C78.7588 70.972 79.0468 71.848 79.6228 71.848C80.4148 71.848 81.0268 70.984 81.4588 69.256C81.7468 68.056 81.8908 66.844 81.8908 65.62C81.8908 64.828 81.7588 64.228 81.4948 63.82C81.2308 63.388 81.0988 63.208 81.0988 63.28C81.0988 63.088 81.2308 62.992 81.4948 62.992C82.2148 62.992 82.5748 63.892 82.5748 65.692C82.5748 67.06 82.3108 68.488 81.7828 69.976C81.1108 71.944 80.2228 72.928 79.1188 72.928ZM83.7498 74.08C83.7018 74.032 83.6778 73.996 83.6778 73.972C83.7018 73.804 83.7378 73.504 83.7858 73.072C83.8578 72.64 83.9418 72.052 84.0378 71.308C84.2298 69.868 84.3738 68.608 84.4698 67.528C84.5658 66.448 84.6138 65.548 84.6138 64.828C84.6138 64.084 84.5538 63.508 84.4338 63.1C84.3378 63.004 84.1458 62.956 83.8578 62.956C83.7138 62.956 83.4978 62.992 83.2098 63.064C82.9218 63.136 82.7178 63.172 82.5978 63.172C82.4778 63.172 82.4178 63.136 82.4178 63.064C82.4178 62.992 82.7298 62.788 83.3538 62.452C84.6498 61.828 85.2498 61.516 85.1538 61.516C85.6098 61.516 85.8378 62.2 85.8378 63.568C85.8378 64.168 85.7298 65.08 85.5138 66.304C85.4178 66.904 85.3458 67.432 85.2978 67.888C85.2498 68.32 85.2258 68.692 85.2258 69.004V69.112C86.6418 66.736 88.0818 64.816 89.5458 63.352C90.0978 62.92 90.6138 62.704 91.0938 62.704C91.1658 62.704 91.2018 62.728 91.2018 62.776C90.9618 63.256 90.7698 63.64 90.6258 63.928C90.5058 64.216 90.4218 64.42 90.3738 64.54C90.1818 65.02 90.0258 65.68 89.9058 66.52C89.8818 66.832 89.8098 66.988 89.6898 66.988C89.2818 66.988 89.0778 66.412 89.0778 65.26C89.0778 65.164 89.0778 65.068 89.0778 64.972C89.0778 64.876 89.0898 64.78 89.1138 64.684C88.5138 65.26 87.9618 65.872 87.4578 66.52C86.9778 67.168 86.5338 67.852 86.1258 68.572C85.1418 70.324 84.6978 71.86 84.7938 73.18C84.6738 73.324 84.5178 73.468 84.3258 73.612C84.1578 73.756 83.9658 73.912 83.7498 74.08ZM97.5285 75.304C97.5045 75.28 97.4925 75.256 97.4925 75.232C97.5165 75.112 97.5525 74.908 97.6005 74.62C97.6485 74.332 97.6965 73.96 97.7445 73.504C98.2005 70.192 98.5365 67.108 98.7525 64.252C98.9685 61.396 99.0765 58.768 99.0765 56.368C99.0765 53.992 98.6085 52.804 97.6725 52.804C97.6005 52.804 97.4805 52.828 97.3125 52.876C97.1445 52.924 97.0245 52.948 96.9525 52.948C96.8325 52.948 96.7725 52.888 96.7725 52.768C96.7725 52.6 97.1925 52.372 98.0325 52.084C98.8245 51.772 99.3765 51.616 99.6885 51.616C100.241 51.616 100.517 52.108 100.517 53.092C100.517 53.812 100.493 54.604 100.445 55.468C100.397 56.332 100.325 57.256 100.229 58.24L99.2565 69.076L102.461 64.864C102.725 64.504 103.181 63.76 103.829 62.632C104.165 62.08 104.681 61.804 105.377 61.804C105.689 61.804 105.881 61.876 105.953 62.02C105.929 62.044 105.893 62.068 105.845 62.092C105.821 62.116 105.773 62.14 105.701 62.164C105.029 62.452 104.465 63.508 104.009 65.332C103.625 66.772 103.433 68.032 103.433 69.112C103.433 70.912 103.865 71.812 104.729 71.812C105.017 71.812 105.353 71.584 105.737 71.128L106.349 70.444C106.373 70.468 106.385 70.492 106.385 70.516C106.385 70.828 106.097 71.332 105.521 72.028C104.993 72.7 104.573 73.036 104.261 73.036C103.109 73.036 102.533 71.848 102.533 69.472C102.533 67.384 102.581 66.16 102.677 65.8C102.509 65.968 102.293 66.208 102.029 66.52C101.789 66.808 101.477 67.18 101.093 67.636C99.5805 69.508 98.7645 71.764 98.6445 74.404C98.1165 74.956 97.7445 75.256 97.5285 75.304ZM108.545 72.928C107.417 72.928 106.853 71.8 106.853 69.544C106.853 68.704 106.925 67.864 107.069 67.024C107.213 66.184 107.417 65.344 107.681 64.504C107.897 63.832 108.269 63.256 108.797 62.776C109.349 62.272 109.961 62.02 110.633 62.02C110.873 62.02 111.005 62.068 111.029 62.164C110.981 62.26 110.921 62.284 110.849 62.236C109.889 62.476 109.169 63.46 108.689 65.188C108.521 65.812 108.389 66.46 108.293 67.132C108.221 67.804 108.185 68.5 108.185 69.22C108.185 70.972 108.473 71.848 109.049 71.848C109.841 71.848 110.453 70.984 110.885 69.256C111.173 68.056 111.317 66.844 111.317 65.62C111.317 64.828 111.185 64.228 110.921 63.82C110.657 63.388 110.525 63.208 110.525 63.28C110.525 63.088 110.657 62.992 110.921 62.992C111.641 62.992 112.001 63.892 112.001 65.692C112.001 67.06 111.737 68.488 111.209 69.976C110.537 71.944 109.649 72.928 108.545 72.928ZM113.896 73.036C113.704 73.036 113.608 72.784 113.608 72.28C113.608 71.896 113.644 71.512 113.716 71.128C114.028 69.496 114.256 68.092 114.4 66.916C114.568 65.74 114.652 64.804 114.652 64.108C114.652 63.46 114.556 63.04 114.364 62.848C114.196 62.656 113.788 62.56 113.14 62.56C112.996 62.56 112.804 62.596 112.564 62.668C112.3 62.716 112.108 62.74 111.988 62.74C111.892 62.74 111.844 62.716 111.844 62.668C111.844 62.596 112.168 62.404 112.816 62.092C114.088 61.444 114.748 61.12 114.796 61.12C115.396 61.12 115.696 61.732 115.696 62.956C115.696 63.292 115.624 64.012 115.48 65.116C115.336 66.22 115.132 67.696 114.868 69.544L114.724 70.516L114.76 70.588C116.992 66.604 118.432 64.612 119.08 64.612C119.44 64.612 119.596 66.16 119.548 69.256C119.716 69.04 120.04 68.596 120.52 67.924C121.024 67.252 121.696 66.364 122.536 65.26L123.94 63.928C124.132 63.736 124.276 63.64 124.372 63.64C124.42 63.64 124.444 63.676 124.444 63.748C124.444 63.82 124.408 63.928 124.336 64.072C123.76 65.32 123.472 67 123.472 69.112C123.472 70.912 123.904 71.812 124.768 71.812C125.104 71.812 125.632 71.356 126.352 70.444V70.552C126.352 70.84 126.076 71.332 125.524 72.028C124.996 72.7 124.588 73.036 124.3 73.036C123.124 73.036 122.536 71.776 122.536 69.256C122.536 68.152 122.608 67.156 122.752 66.268C121.936 66.652 120.964 67.756 119.836 69.58L119.332 70.588C119.212 70.78 119.08 70.876 118.936 70.876C118.6 70.876 118.408 70.336 118.36 69.256C118.36 69.064 118.36 68.8 118.36 68.464C118.36 68.128 118.372 67.72 118.396 67.24C118.372 66.832 118.288 66.556 118.144 66.412C117.496 66.604 116.296 68.56 114.544 72.28C114.304 72.784 114.088 73.036 113.896 73.036ZM128.946 73.396C127.29 73.396 126.462 72.148 126.462 69.652C126.462 69.244 126.474 68.848 126.498 68.464C126.546 68.056 126.618 67.66 126.714 67.276C126.426 67.084 126.282 66.928 126.282 66.808C126.282 66.592 126.534 66.4 127.038 66.232C127.278 65.512 127.626 64.696 128.082 63.784C128.73 62.536 129.222 61.912 129.558 61.912C129.942 61.912 130.23 62.08 130.422 62.416C130.566 62.08 130.734 61.912 130.926 61.912C131.598 61.912 131.934 62.32 131.934 63.136C131.934 63.76 131.814 64.312 131.574 64.792C131.742 64.984 131.826 65.164 131.826 65.332C131.826 65.38 131.79 65.428 131.718 65.476L129.702 66.124C129.318 66.244 128.97 66.4 128.658 66.592C128.37 66.784 128.106 66.988 127.866 67.204C127.602 67.996 127.47 68.848 127.47 69.76C127.47 71.776 128.094 72.784 129.342 72.784C130.998 72.784 132.558 71.44 134.022 68.752C134.094 68.632 134.154 68.572 134.202 68.572C134.274 68.572 134.31 68.644 134.31 68.788C134.31 68.908 134.274 69.04 134.202 69.184C133.626 70.336 132.93 71.284 132.114 72.028C131.082 72.94 130.026 73.396 128.946 73.396ZM128.298 65.944C128.538 65.872 128.814 65.788 129.126 65.692C129.462 65.572 129.822 65.428 130.206 65.26C130.326 65.164 130.482 64.864 130.674 64.36C130.842 63.928 130.926 63.58 130.926 63.316C130.926 63.004 130.806 62.848 130.566 62.848C130.302 62.848 129.87 63.292 129.27 64.18C128.646 65.044 128.322 65.632 128.298 65.944Z" fill="#292929"/>
</svg>
